<svg width="46" height="56" viewBox="0 0 46 56" fill="none" xmlns="http://www.w3.org/2000/svg">
<path d="M17.4844 8.84375V0.640625C17.4844 0.33875 17.2394 0.09375 16.9375 0.09375H14.75C14.4481 0.09375 14.2031 0.33875 14.2031 0.640625V8.84375H17.4844Z" fill="white"/>
<path d="M29.5156 24.1562H32.7969V7.75C32.7969 7.44813 32.5519 7.20312 32.25 7.20312H7.64062C7.33875 7.20312 7.09375 7.44813 7.09375 7.75V9.9375C7.09375 10.2394 7.33875 10.4844 7.64062 10.4844H29.5156V24.1562Z" fill="white"/>
<path d="M29.5156 26.8906V32.3594C29.5156 32.6613 29.7606 32.9063 30.0625 32.9063H32.25C32.5519 32.9063 32.7969 32.6613 32.7969 32.3594V26.8906H29.5156Z" fill="white"/>
<path d="M39.3594 22.5156H17.4844V11.5781H14.2031V25.25C14.2031 25.5519 14.4481 25.7969 14.75 25.7969H39.3594C39.6612 25.7969 39.9062 25.5519 39.9062 25.25V23.0625C39.9062 22.7606 39.6612 22.5156 39.3594 22.5156Z" fill="white"/>
<path d="M33.8905 6.65626C33.7505 6.65626 33.6105 6.60267 33.5039 6.49603C33.29 6.2822 33.29 5.93658 33.5039 5.72275L38.9726 0.253999C39.1865 0.0401709 39.5321 0.0401709 39.7459 0.253999C39.9597 0.467827 39.9597 0.813452 39.7459 1.02728L34.2772 6.49603C34.1705 6.60267 34.0305 6.65626 33.8905 6.65626Z" fill="white"/>
<path d="M19.1249 21.4219C18.9849 21.4219 18.8449 21.3683 18.7383 21.2617C18.5244 21.0478 18.5244 20.7022 18.7383 20.4884L27.4883 11.7384C27.7021 11.5245 28.0477 11.5245 28.2615 11.7384C28.4754 11.9522 28.4754 12.2978 28.2615 12.5117L19.5115 21.2617C19.4049 21.3683 19.2649 21.4219 19.1249 21.4219Z" fill="white"/>
<path opacity="0.7" d="M4.36655 43.2H0.348547V53H4.32455C7.29255 53 9.43455 50.928 9.43455 48.1C9.43455 45.258 7.30655 43.2 4.36655 43.2ZM4.40855 51.516H2.00055V44.684H4.33855C6.27055 44.684 7.76855 46.112 7.76855 48.114C7.76855 50.102 6.31255 51.516 4.40855 51.516ZM14.172 45.496C11.96 45.51 10.406 47.036 10.406 49.29C10.406 51.53 11.918 53.056 14.214 53.056C15.502 53.056 16.566 52.594 17.294 51.796L16.44 50.886C15.894 51.446 15.152 51.754 14.34 51.754C13.164 51.754 12.282 51.04 12.03 49.892H17.658C17.854 47.204 16.79 45.496 14.172 45.496ZM12.002 48.716C12.17 47.526 13.01 46.784 14.186 46.784C15.404 46.784 16.202 47.512 16.258 48.716H12.002ZM23.5785 47.428L24.1665 46.238C23.4945 45.762 22.5005 45.482 21.5625 45.482C20.1345 45.482 18.8185 46.126 18.8185 47.638C18.8045 50.326 22.7245 49.472 22.7245 50.998C22.7245 51.558 22.1925 51.796 21.5065 51.796C20.6945 51.796 19.6585 51.446 19.0145 50.872L18.4405 52.02C19.1825 52.692 20.3445 53.056 21.4365 53.056C22.9345 53.056 24.2925 52.37 24.2925 50.844C24.3065 48.142 20.3445 48.884 20.3445 47.512C20.3445 46.98 20.8065 46.77 21.4365 46.77C22.0945 46.77 22.9205 47.022 23.5785 47.428ZM26.7107 42.458C26.1787 42.458 25.7727 42.864 25.7727 43.424C25.7727 43.97 26.1787 44.376 26.7107 44.376C27.2427 44.376 27.6487 43.97 27.6487 43.424C27.6487 42.864 27.2427 42.458 26.7107 42.458ZM25.9127 45.552V53H27.5087V45.552H25.9127ZM35.0152 45.552V46.756C34.4972 45.944 33.6432 45.482 32.4952 45.496C30.5212 45.51 29.1912 46.938 29.1912 49.038C29.1912 51.18 30.5352 52.636 32.5512 52.636C33.6712 52.636 34.5112 52.188 35.0152 51.376V52.314C35.0152 53.602 34.0912 54.428 32.6772 54.428C31.7672 54.428 31.0392 54.134 30.3392 53.616L29.6532 54.778C30.5632 55.394 31.5852 55.758 32.7472 55.758C35.0852 55.758 36.6112 54.414 36.6112 52.272V45.552H35.0152ZM32.8732 51.376C31.5852 51.376 30.7172 50.424 30.7032 49.08C30.7172 47.75 31.5992 46.798 32.8732 46.798C34.1332 46.798 35.0152 47.736 35.0152 49.08C35.0152 50.424 34.1332 51.376 32.8732 51.376ZM43.2003 45.496C41.9403 45.496 40.9883 45.944 40.4563 46.98V45.552H38.8463V53H40.4563V49.038C40.5683 47.876 41.3383 47.022 42.5703 47.008C43.6903 47.008 44.3623 47.694 44.3623 48.814V53H45.9723V48.366C45.9723 46.588 44.9363 45.496 43.2003 45.496Z" fill="white"/>
</svg>
