<svg width="154" height="101" viewBox="0 0 154 101" fill="none" xmlns="http://www.w3.org/2000/svg">
<path d="M5.37575 85.8H0.71975V97H5.29575C8.75175 97 11.2158 94.664 11.2158 91.4C11.2158 88.12 8.76775 85.8 5.37575 85.8ZM5.42375 95.112H2.86375V87.688H5.34375C7.43975 87.688 9.02375 89.224 9.02375 91.416C9.02375 93.592 7.48775 95.112 5.42375 95.112ZM15.0948 90.088V88.44H13.0148V97H15.0948V92.872C15.0948 91.32 16.1988 90.264 18.0068 90.376V88.36C16.6788 88.376 15.6708 88.968 15.0948 90.088ZM26.275 97L26.259 91.4C26.243 89.496 24.979 88.36 22.739 88.36C21.171 88.36 20.211 88.728 18.979 89.416L19.731 90.856C20.611 90.328 21.475 90.056 22.275 90.056C23.555 90.056 24.211 90.648 24.211 91.64V91.864H21.715C19.635 91.88 18.467 92.856 18.467 94.44C18.467 95.96 19.619 97.096 21.459 97.096C22.675 97.096 23.635 96.712 24.227 95.96V97H26.275ZM21.955 95.496C21.011 95.496 20.435 95.032 20.435 94.312C20.435 93.56 20.947 93.256 22.051 93.256H24.211V94.024C24.099 94.856 23.155 95.496 21.955 95.496ZM34.3525 88.44V89.72C33.7605 88.856 32.8005 88.36 31.5685 88.376C29.3445 88.376 27.8245 90.024 27.8245 92.44C27.8245 94.904 29.3605 96.568 31.6325 96.568C32.8485 96.568 33.7765 96.088 34.3525 95.224V96.232C34.3525 97.592 33.3765 98.44 31.8405 98.44C30.8165 98.44 29.9525 98.12 29.1685 97.544L28.3365 99.048C29.3445 99.736 30.5765 100.184 31.9525 100.184C34.6565 100.184 36.4325 98.632 36.4325 96.184V88.44H34.3525ZM32.0805 94.936C30.7205 94.936 29.8085 93.928 29.7925 92.488C29.8085 91.064 30.7365 90.04 32.0805 90.04C33.4245 90.04 34.3525 91.048 34.3525 92.488C34.3525 93.928 33.4245 94.936 32.0805 94.936ZM50.775 97L50.759 91.4C50.743 89.496 49.479 88.36 47.239 88.36C45.671 88.36 44.711 88.728 43.479 89.416L44.231 90.856C45.111 90.328 45.975 90.056 46.775 90.056C48.055 90.056 48.711 90.648 48.711 91.64V91.864H46.215C44.135 91.88 42.967 92.856 42.967 94.44C42.967 95.96 44.119 97.096 45.959 97.096C47.175 97.096 48.135 96.712 48.727 95.96V97H50.775ZM46.455 95.496C45.511 95.496 44.935 95.032 44.935 94.312C44.935 93.56 45.447 93.256 46.551 93.256H48.711V94.024C48.599 94.856 47.655 95.496 46.455 95.496ZM58.2605 88.36C56.8685 88.376 55.7965 88.904 55.1885 90.04V88.44H53.1085V97H55.1885V92.792C55.1885 91.384 56.0205 90.344 57.4285 90.328C58.6125 90.328 59.3325 91.064 59.3325 92.264V97H61.4285V91.656C61.4285 89.624 60.2285 88.36 58.2605 88.36ZM69.9408 85.128V89.848C69.3168 88.888 68.3248 88.36 67.0128 88.36C64.6128 88.36 62.9808 90.104 62.9808 92.696C62.9808 95.304 64.6128 97.096 67.0608 97.096C68.3408 97.096 69.3328 96.568 69.9408 95.624V97H72.0208V85.128H69.9408ZM67.5088 95.352C66.0688 95.352 65.0928 94.28 65.0768 92.744C65.0928 91.224 66.0848 90.136 67.5088 90.136C68.9488 90.136 69.9408 91.208 69.9408 92.744C69.9408 94.28 68.9488 95.352 67.5088 95.352ZM85.6595 85.128V89.848C85.0355 88.888 84.0435 88.36 82.7315 88.36C80.3315 88.36 78.6995 90.104 78.6995 92.696C78.6995 95.304 80.3315 97.096 82.7795 97.096C84.0595 97.096 85.0515 96.568 85.6595 95.624V97H87.7395V85.128H85.6595ZM83.2275 95.352C81.7875 95.352 80.8115 94.28 80.7955 92.744C80.8115 91.224 81.8035 90.136 83.2275 90.136C84.6675 90.136 85.6595 91.208 85.6595 92.744C85.6595 94.28 84.6675 95.352 83.2275 95.352ZM92.4854 90.088V88.44H90.4054V97H92.4854V92.872C92.4854 91.32 93.5894 90.264 95.3974 90.376V88.36C94.0694 88.376 93.0614 88.968 92.4854 90.088ZM100.603 88.376C97.8985 88.376 96.0745 90.12 96.0745 92.712C96.0745 95.32 97.8985 97.08 100.603 97.08C103.275 97.08 105.099 95.32 105.099 92.712C105.099 90.12 103.275 88.376 100.603 88.376ZM100.603 90.152C102.011 90.152 103.003 91.208 103.003 92.744C103.003 94.28 102.011 95.336 100.603 95.336C99.1625 95.336 98.1705 94.28 98.1705 92.744C98.1705 91.208 99.1625 90.152 100.603 90.152ZM111.945 88.376C110.665 88.376 109.673 88.904 109.065 89.848V88.44H106.985V100.104H109.065V95.608C109.689 96.552 110.681 97.08 111.977 97.08C114.409 97.08 115.993 95.336 115.993 92.76C115.993 90.136 114.361 88.376 111.945 88.376ZM111.481 95.288C110.057 95.288 109.065 94.232 109.065 92.696C109.065 91.192 110.057 90.12 111.481 90.12C112.889 90.12 113.881 91.192 113.881 92.696C113.881 94.216 112.889 95.288 111.481 95.288ZM129.313 87.144C129.969 87.144 130.433 86.664 130.433 85.992C130.433 85.32 129.969 84.84 129.313 84.84C128.657 84.84 128.193 85.32 128.193 85.992C128.193 86.664 128.657 87.144 129.313 87.144ZM122.977 87.976V88.792H121.857V90.312H122.977V97H125.057V90.312H127.201V88.792H125.057V87.912C125.057 87.144 125.521 86.84 126.161 86.84C126.577 86.84 127.089 86.984 127.553 87.192L127.617 85.4C127.169 85.16 126.593 85.032 126.017 85.032C124.481 85.032 122.977 85.976 122.977 87.976ZM128.273 97H130.353V88.44H128.273V97ZM133.017 85.128V97H135.097V85.128H133.017ZM141.333 88.376C138.773 88.376 136.981 90.136 136.981 92.744C136.981 95.32 138.725 97.08 141.381 97.08C142.885 97.08 144.133 96.536 144.981 95.608L143.861 94.44C143.253 95.064 142.437 95.4 141.557 95.4C140.309 95.4 139.381 94.664 139.109 93.448H145.429C145.637 90.344 144.341 88.376 141.333 88.376ZM139.061 92.056C139.253 90.792 140.117 89.992 141.349 89.992C142.645 89.992 143.493 90.792 143.541 92.056H139.061ZM152.306 90.76L153.058 89.256C152.21 88.68 151.042 88.344 149.922 88.344C148.194 88.344 146.69 89.16 146.69 90.92C146.674 93.96 151.138 93.096 151.138 94.68C151.138 95.24 150.594 95.48 149.874 95.48C148.946 95.48 147.762 95.096 146.978 94.424L146.258 95.88C147.154 96.664 148.498 97.08 149.794 97.08C151.618 97.08 153.17 96.232 153.17 94.488C153.17 91.416 148.642 92.168 148.642 90.728C148.642 90.2 149.122 89.976 149.794 89.976C150.53 89.976 151.474 90.264 152.306 90.76Z" fill="white"/>
<g opacity="0.5">
<path d="M99 10H59V6C59 5.46957 59.2107 4.96086 59.5858 4.58579C59.9609 4.21071 60.4696 4 61 4H97C97.5304 4 98.0391 4.21071 98.4142 4.58579C98.7893 4.96086 99 5.46957 99 6V10Z" fill="white"/>
<path d="M106 12H52C51.4696 12 50.9609 12.2107 50.5858 12.5858C50.2107 12.9609 50 13.4696 50 14V58C50 58.5304 50.2107 59.0391 50.5858 59.4142C50.9609 59.7893 51.4696 60 52 60H106C106.53 60 107.039 59.7893 107.414 59.4142C107.789 59.0391 108 58.5304 108 58V14C108 13.4696 107.789 12.9609 107.414 12.5858C107.039 12.2107 106.53 12 106 12ZM68 20C68.7911 20 69.5645 20.2346 70.2223 20.6741C70.8801 21.1136 71.3928 21.7384 71.6955 22.4693C71.9983 23.2002 72.0775 24.0044 71.9231 24.7804C71.7688 25.5563 71.3878 26.269 70.8284 26.8284C70.269 27.3878 69.5563 27.7688 68.7804 27.9231C68.0044 28.0775 67.2002 27.9983 66.4693 27.6955C65.7384 27.3928 65.1136 26.8801 64.6741 26.2223C64.2346 25.5645 64 24.7911 64 24C64 22.9391 64.4214 21.9217 65.1716 21.1716C65.9217 20.4214 66.9391 20 68 20ZM99.87 49.493C99.7828 49.6469 99.6563 49.7749 99.5035 49.864C99.3506 49.9531 99.1769 50 99 50H59C58.819 50 58.6413 49.9509 58.486 49.8579C58.3307 49.7648 58.2035 49.6314 58.1181 49.4718C58.0327 49.3121 57.9922 49.1323 58.001 48.9515C58.0098 48.7707 58.0675 48.5956 58.168 48.445L66.168 36.445C66.2501 36.322 66.3585 36.2187 66.4853 36.1425C66.6122 36.0664 66.7543 36.0194 66.9015 36.0049C67.0487 35.9903 67.1973 36.0086 67.3366 36.0585C67.4759 36.1083 67.6024 36.1884 67.707 36.293L74.892 43.478L86.2 28.4C86.2966 28.2667 86.4254 28.1601 86.5744 28.0901C86.7234 28.0202 86.8877 27.9892 87.052 28C87.2147 28.0094 87.3726 28.0584 87.5121 28.1427C87.6515 28.2271 87.7682 28.3442 87.852 28.484L99.852 48.484C99.9442 48.6355 99.9944 48.8088 99.9976 48.9861C100.001 49.1634 99.9567 49.3383 99.87 49.493Z" fill="white"/>
</g>
</svg>
