<svg width="262" height="55" viewBox="0 0 262 55" fill="none" xmlns="http://www.w3.org/2000/svg">
<path d="M75.838 4.292L76.54 2.784C75.669 2.212 74.46 1.822 73.251 1.822C71.21 1.822 69.845 2.836 69.845 4.422C69.845 7.659 74.733 6.58 74.733 8.478C74.733 9.115 74.148 9.479 73.173 9.479C72.198 9.479 70.963 8.972 70.027 8.14L69.299 9.609C70.274 10.48 71.691 11.065 73.147 11.065C75.149 11.065 76.631 10.077 76.631 8.374C76.644 5.111 71.756 6.112 71.756 4.266C71.756 3.707 72.289 3.408 73.108 3.408C73.81 3.408 74.863 3.707 75.838 4.292ZM78.0671 1.9V3.447H80.9011V11H82.6561V3.447H85.4901V1.9H78.0671ZM87.5237 1.9V11H94.3487V9.479H89.2657V7.191H93.6857V5.67H89.2657V3.421H94.1927V1.9H87.5237ZM100.649 1.9H96.9184V11H98.6604V8.322H100.649C102.937 8.322 104.25 7.113 104.25 5.033C104.25 3.031 102.937 1.9 100.649 1.9ZM100.558 6.788H98.6604V3.421H100.558C101.858 3.421 102.599 3.967 102.599 5.085C102.599 6.229 101.858 6.788 100.558 6.788ZM114.152 6.203L110.72 9.739V11H117.467V9.466H112.995L115.335 7.139C116.349 6.099 117.064 5.072 117.064 4.136C117.064 2.719 115.829 1.809 114.035 1.809C112.8 1.809 111.591 2.303 110.538 3.135L111.24 4.474C112.033 3.772 112.982 3.33 113.788 3.33C114.698 3.33 115.244 3.72 115.244 4.396C115.244 4.877 114.802 5.566 114.152 6.203Z" fill="#94A3B6"/>
<path d="M71.968 29.4V49H85.632V46.928H74.208V40.096H84.092V38.052H74.208V31.472H85.268V29.4H71.968ZM101.266 28.224V37.464C100.174 35.364 98.1303 34.16 95.4983 34.16C91.3263 34.16 88.4143 37.212 88.4143 41.608C88.4143 46.004 91.3263 49.112 95.5263 49.112C98.1583 49.112 100.174 47.908 101.266 45.836V49H103.45V28.224H101.266ZM95.9463 47.236C92.8103 47.236 90.5983 44.912 90.5983 41.664C90.5983 38.416 92.8103 36.064 95.9463 36.064C99.0543 36.064 101.266 38.416 101.266 41.664C101.266 44.912 99.0543 47.236 95.9463 47.236ZM109.966 28.56C109.154 28.56 108.538 29.176 108.538 30.044C108.538 30.884 109.154 31.528 109.966 31.528C110.778 31.528 111.394 30.884 111.394 30.044C111.394 29.176 110.778 28.56 109.966 28.56ZM108.902 34.272V49H111.058V34.272H108.902ZM123.367 46.312C122.555 46.788 121.771 47.04 121.015 47.068C119.755 47.068 119.055 46.34 119.055 44.548V36.428H123.731V34.72H119.055V30.856H116.899V34.72H114.771V36.428H116.899V44.912C116.899 47.824 118.495 49.112 120.651 49.084C121.827 49.084 122.947 48.692 123.983 47.992L123.367 46.312ZM133.32 29.4V31.472H139.704V49H141.944V31.472H148.356V29.4H133.32ZM155.031 34.188C150.747 34.216 147.723 37.24 147.723 41.636C147.723 46.032 150.719 49.084 155.059 49.084C157.523 49.084 159.595 48.188 160.995 46.648L159.791 45.388C158.643 46.592 157.047 47.264 155.227 47.264C152.343 47.264 150.243 45.36 149.879 42.448H161.919C162.143 37.464 159.791 34.188 155.031 34.188ZM149.879 40.712C150.187 37.856 152.203 36.008 155.031 36.008C157.915 36.008 159.819 37.856 159.959 40.712H149.879ZM184.568 34.188C181.74 34.216 179.668 35.448 178.744 38.024C178.128 35.588 176.224 34.188 173.452 34.188C170.792 34.216 168.804 35.308 167.824 37.604V34.272H165.668V49H167.824V41.748C167.824 38.556 169.644 36.344 172.668 36.26C175.244 36.26 176.756 37.828 176.756 40.488V49H178.968V41.748C178.968 38.556 180.732 36.344 183.784 36.26C186.332 36.26 187.872 37.828 187.872 40.488V49H190.056V39.928C190.056 36.344 188.012 34.188 184.568 34.188ZM202.906 34.188C200.33 34.188 198.314 35.392 197.222 37.436V34.272H195.038V54.432H197.222V45.836C198.314 47.88 200.33 49.084 202.962 49.084C207.134 49.084 209.99 46.032 209.99 41.664C209.99 37.268 207.078 34.188 202.906 34.188ZM202.514 47.152C199.406 47.152 197.222 44.856 197.222 41.608C197.222 38.388 199.406 36.064 202.514 36.064C205.594 36.064 207.778 38.416 207.778 41.608C207.778 44.828 205.594 47.152 202.514 47.152ZM213.96 28.224V49H216.144V28.224H213.96ZM232.897 49L232.869 39.256C232.841 36.12 230.825 34.188 227.185 34.188C224.665 34.188 223.069 34.916 221.165 36.176L222.089 37.716C223.629 36.624 225.141 36.008 226.765 36.008C229.369 36.008 230.713 37.324 230.713 39.48V40.404H225.869C222.397 40.432 220.353 42.056 220.353 44.632C220.353 47.152 222.313 49.084 225.365 49.084C227.717 49.084 229.593 48.3 230.769 46.704V49H232.897ZM225.785 47.264C223.713 47.264 222.397 46.172 222.397 44.548C222.397 42.896 223.685 42.14 226.149 42.14H230.741V43.932C230.181 46.032 228.277 47.264 225.785 47.264ZM244.773 46.312C243.961 46.788 243.177 47.04 242.421 47.068C241.161 47.068 240.461 46.34 240.461 44.548V36.428H245.137V34.72H240.461V30.856H238.305V34.72H236.177V36.428H238.305V44.912C238.305 47.824 239.901 49.112 242.057 49.084C243.233 49.084 244.353 48.692 245.389 47.992L244.773 46.312ZM254.289 34.188C250.005 34.216 246.981 37.24 246.981 41.636C246.981 46.032 249.977 49.084 254.317 49.084C256.781 49.084 258.853 48.188 260.253 46.648L259.049 45.388C257.901 46.592 256.305 47.264 254.485 47.264C251.601 47.264 249.501 45.36 249.137 42.448H261.177C261.401 37.464 259.049 34.188 254.289 34.188ZM249.137 40.712C249.445 37.856 251.461 36.008 254.289 36.008C257.173 36.008 259.077 37.856 259.217 40.712H249.137Z" fill="#333333"/>
<g opacity="0.4">
<path d="M3.0625 47.4688H45.9375" stroke="#94A3B6" stroke-width="2" stroke-miterlimit="10" stroke-linecap="round" stroke-linejoin="round"/>
<path d="M32.1562 1.53125L41.3438 10.7188L15.3125 36.75L3.0625 39.8125L6.125 27.5625L32.1562 1.53125Z" stroke="#94A3B6" stroke-width="2" stroke-miterlimit="10" stroke-linecap="round" stroke-linejoin="round"/>
</g>
</svg>
