<svg width="42" height="54" viewBox="0 0 42 54" fill="none" xmlns="http://www.w3.org/2000/svg">
<path d="M10.1094 16.5V0.640625C10.1094 0.495585 10.0518 0.356485 9.9492 0.253926C9.84664 0.151367 9.70754 0.09375 9.5625 0.09375C9.41746 0.09375 9.27836 0.151367 9.1758 0.253926C9.07324 0.356485 9.01562 0.495585 9.01562 0.640625V16.5C9.01562 16.645 9.07324 16.7841 9.1758 16.8867C9.27836 16.9893 9.41746 17.0469 9.5625 17.0469C9.70754 17.0469 9.84664 16.9893 9.9492 16.8867C10.0518 16.7841 10.1094 16.645 10.1094 16.5Z" fill="white"/>
<path d="M10.1094 32.3594V25.7969H13.9375C14.0825 25.7969 14.2216 25.7393 14.3242 25.6367C14.4268 25.5341 14.4844 25.395 14.4844 25.25V19.7812C14.4844 19.6362 14.4268 19.4971 14.3242 19.3946C14.2216 19.292 14.0825 19.2344 13.9375 19.2344H5.1875C5.04246 19.2344 4.90336 19.292 4.8008 19.3946C4.69824 19.4971 4.64063 19.6362 4.64062 19.7812V25.25C4.64062 25.395 4.69824 25.5341 4.8008 25.6367C4.90336 25.7393 5.04246 25.7969 5.1875 25.7969H9.01562V32.3594C9.01562 32.5044 9.07324 32.6435 9.1758 32.7461C9.27836 32.8486 9.41746 32.9062 9.5625 32.9062C9.70754 32.9062 9.84664 32.8486 9.9492 32.7461C10.0518 32.6435 10.1094 32.5044 10.1094 32.3594Z" fill="white"/>
<path d="M30.8906 0.640625V16.5C30.8906 16.645 30.9482 16.7841 31.0508 16.8867C31.1534 16.9893 31.2925 17.0469 31.4375 17.0469C31.5825 17.0469 31.7216 16.9893 31.8242 16.8867C31.9268 16.7841 31.9844 16.645 31.9844 16.5V0.640625C31.9844 0.495585 31.9268 0.356485 31.8242 0.253926C31.7216 0.151367 31.5825 0.09375 31.4375 0.09375C31.2925 0.09375 31.1534 0.151367 31.0508 0.253926C30.9482 0.356485 30.8906 0.495585 30.8906 0.640625Z" fill="white"/>
<path d="M26.5156 19.7812V25.25C26.5156 25.395 26.5732 25.5341 26.6758 25.6367C26.7784 25.7393 26.9175 25.7969 27.0625 25.7969H30.8906V32.3594C30.8906 32.5044 30.9482 32.6435 31.0508 32.7461C31.1534 32.8486 31.2925 32.9062 31.4375 32.9062C31.5825 32.9062 31.7216 32.8486 31.8242 32.7461C31.9268 32.6435 31.9844 32.5044 31.9844 32.3594V25.7969H35.8125C35.9575 25.7969 36.0966 25.7393 36.1992 25.6367C36.3018 25.5341 36.3594 25.395 36.3594 25.25V19.7812C36.3594 19.6362 36.3018 19.4971 36.1992 19.3946C36.0966 19.292 35.9575 19.2344 35.8125 19.2344H27.0625C26.9175 19.2344 26.7784 19.292 26.6758 19.3946C26.5732 19.4971 26.5156 19.6362 26.5156 19.7812Z" fill="white"/>
<path d="M19.9531 0.640625V4.46875C19.9531 4.61379 20.0107 4.75289 20.1133 4.85545C20.2159 4.95801 20.355 5.01562 20.5 5.01562C20.645 5.01562 20.7841 4.95801 20.8867 4.85545C20.9893 4.75289 21.0469 4.61379 21.0469 4.46875V0.640625C21.0469 0.495585 20.9893 0.356485 20.8867 0.253926C20.7841 0.151367 20.645 0.09375 20.5 0.09375C20.355 0.09375 20.2159 0.151367 20.1133 0.253926C20.0107 0.356485 19.9531 0.495585 19.9531 0.640625Z" fill="white"/>
<path d="M21.0469 32.3594V13.7656H24.875C25.02 13.7656 25.1591 13.708 25.2617 13.6054C25.3643 13.5029 25.4219 13.3638 25.4219 13.2188V7.75C25.4219 7.60496 25.3643 7.46586 25.2617 7.3633C25.1591 7.26074 25.02 7.20312 24.875 7.20312H16.125C15.98 7.20312 15.8409 7.26074 15.7383 7.3633C15.6357 7.46586 15.5781 7.60496 15.5781 7.75V13.2188C15.5781 13.3638 15.6357 13.5029 15.7383 13.6054C15.8409 13.708 15.98 13.7656 16.125 13.7656H19.9531V32.3594C19.9531 32.5044 20.0107 32.6435 20.1133 32.7461C20.2159 32.8486 20.355 32.9062 20.5 32.9062C20.645 32.9062 20.7841 32.8486 20.8867 32.7461C20.9893 32.6435 21.0469 32.5044 21.0469 32.3594Z" fill="white"/>
<path opacity="0.7" d="M0.740149 43.2V53H2.39215V48.982H6.84415V47.512H2.39215V44.684H7.30615L7.32015 43.2H0.740149ZM9.49288 42.458C8.96088 42.458 8.55488 42.864 8.55488 43.424C8.55488 43.97 8.96088 44.376 9.49288 44.376C10.0249 44.376 10.4309 43.97 10.4309 43.424C10.4309 42.864 10.0249 42.458 9.49288 42.458ZM8.69488 45.552V53H10.2909V45.552H8.69488ZM12.7434 42.612V53H14.3534V42.612H12.7434ZM20.6103 51.292C20.1763 51.502 19.8263 51.614 19.4903 51.614C18.9863 51.614 18.6923 51.376 18.6923 50.606V47.036H20.8903V45.832H18.6923V43.788H17.0963V45.832H16.0463V47.036H17.0963V50.9C17.0963 52.426 18.0623 53.07 19.1823 53.07C19.8123 53.07 20.4283 52.874 21.0163 52.524L20.6103 51.292ZM25.4874 45.496C23.2754 45.51 21.7214 47.036 21.7214 49.29C21.7214 51.53 23.2334 53.056 25.5294 53.056C26.8174 53.056 27.8814 52.594 28.6094 51.796L27.7554 50.886C27.2094 51.446 26.4674 51.754 25.6554 51.754C24.4794 51.754 23.5974 51.04 23.3454 49.892H28.9734C29.1694 47.204 28.1054 45.496 25.4874 45.496ZM23.3174 48.716C23.4854 47.526 24.3254 46.784 25.5014 46.784C26.7194 46.784 27.5174 47.512 27.5734 48.716H23.3174ZM32.2619 47.036V45.552H30.6519V53H32.2619V49.108C32.3879 47.834 33.3399 46.952 34.8379 47.036V45.496C33.6619 45.496 32.7659 46.028 32.2619 47.036ZM40.4037 47.428L40.9917 46.238C40.3197 45.762 39.3257 45.482 38.3877 45.482C36.9597 45.482 35.6437 46.126 35.6437 47.638C35.6297 50.326 39.5497 49.472 39.5497 50.998C39.5497 51.558 39.0177 51.796 38.3317 51.796C37.5197 51.796 36.4837 51.446 35.8397 50.872L35.2657 52.02C36.0077 52.692 37.1697 53.056 38.2617 53.056C39.7597 53.056 41.1177 52.37 41.1177 50.844C41.1317 48.142 37.1697 48.884 37.1697 47.512C37.1697 46.98 37.6317 46.77 38.2617 46.77C38.9197 46.77 39.7457 47.022 40.4037 47.428Z" fill="white"/>
</svg>
