<svg width="41" height="50" viewBox="0 0 41 50" fill="none" xmlns="http://www.w3.org/2000/svg">
<path d="M4.45833 3.33337C4.07156 3.33337 3.70063 3.47385 3.42714 3.7239C3.15365 3.97395 3 4.31309 3 4.66671L3 23.3334C3 23.687 3.15365 24.0261 3.42714 24.2762C3.70063 24.5262 4.07156 24.6667 4.45833 24.6667C4.84511 24.6667 5.21604 24.5262 5.48953 24.2762C5.76302 24.0261 5.91667 23.687 5.91667 23.3334V4.66671C5.91667 4.31309 5.76302 3.97395 5.48953 3.7239C5.21604 3.47385 4.84511 3.33337 4.45833 3.33337Z" fill="white"/>
<path d="M36.5418 3.33337C36.1551 3.33337 35.7841 3.47385 35.5106 3.7239C35.2371 3.97395 35.0835 4.31309 35.0835 4.66671V23.3334C35.0835 23.687 35.2371 24.0261 35.5106 24.2762C35.7841 24.5262 36.1551 24.6667 36.5418 24.6667C36.9286 24.6667 37.2995 24.5262 37.573 24.2762C37.8465 24.0261 38.0002 23.687 38.0002 23.3334V4.66671C38.0002 4.31309 37.8465 3.97395 37.573 3.7239C37.2995 3.47385 36.9286 3.33337 36.5418 3.33337Z" fill="white"/>
<path d="M30.7082 0.666687H10.2916C9.48617 0.666687 8.83325 1.26364 8.83325 2.00002V26C8.83325 26.7364 9.48617 27.3334 10.2916 27.3334H30.7082C31.5137 27.3334 32.1666 26.7364 32.1666 26V2.00002C32.1666 1.26364 31.5137 0.666687 30.7082 0.666687Z" fill="white"/>
<path d="M0.336828 39.2V49H1.89083V41.678L4.98483 47.978H6.06283L9.15683 41.678L9.17083 49H10.6968V39.2H8.75083L5.53083 45.71L2.29683 39.2H0.336828ZM16.2521 41.496C14.0401 41.51 12.4861 43.036 12.4861 45.29C12.4861 47.53 13.9981 49.056 16.2941 49.056C17.5821 49.056 18.6461 48.594 19.3741 47.796L18.5201 46.886C17.9741 47.446 17.2321 47.754 16.4201 47.754C15.2441 47.754 14.3621 47.04 14.1101 45.892H19.7381C19.9341 43.204 18.8701 41.496 16.2521 41.496ZM14.0821 44.716C14.2501 43.526 15.0901 42.784 16.2661 42.784C17.4841 42.784 18.2821 43.512 18.3381 44.716H14.0821ZM26.9046 38.612V42.84C26.3586 41.972 25.4626 41.482 24.2586 41.482C22.1586 41.482 20.7166 43.008 20.7166 45.248C20.7166 47.516 22.1446 49.07 24.2866 49.07C25.4766 49.07 26.3726 48.594 26.9046 47.726V49H28.5146V38.612H26.9046ZM24.6226 47.726C23.2646 47.726 22.3406 46.718 22.3266 45.304C22.3406 43.876 23.2786 42.854 24.6226 42.854C25.9666 42.854 26.9046 43.862 26.9046 45.304C26.9046 46.718 25.9666 47.726 24.6226 47.726ZM31.7575 38.458C31.2255 38.458 30.8195 38.864 30.8195 39.424C30.8195 39.97 31.2255 40.376 31.7575 40.376C32.2895 40.376 32.6955 39.97 32.6955 39.424C32.6955 38.864 32.2895 38.458 31.7575 38.458ZM30.9595 41.552V49H32.5555V41.552H30.9595ZM40.986 49L40.972 44.114C40.958 42.476 39.88 41.496 37.962 41.496C36.548 41.496 35.792 41.818 34.756 42.434L35.414 43.554C36.156 43.05 36.898 42.798 37.612 42.798C38.788 42.798 39.39 43.358 39.39 44.296V44.52H37.136C35.344 44.534 34.322 45.402 34.322 46.76C34.322 48.076 35.33 49.07 36.94 49.07C38.018 49.07 38.872 48.748 39.404 48.09V49H40.986ZM37.276 47.796C36.38 47.796 35.834 47.362 35.834 46.69C35.834 45.976 36.324 45.696 37.374 45.696H39.39V46.382C39.306 47.194 38.424 47.796 37.276 47.796Z" fill="white"/>
</svg>
