<svg width="40" height="54" viewBox="0 0 40 54" fill="none" xmlns="http://www.w3.org/2000/svg">
<path opacity="0.7" d="M0.512609 43.2V53H2.06661V45.678L5.16061 51.978H6.23861L9.33261 45.678L9.34661 53H10.8726V43.2H8.92661L5.70661 49.71L2.47261 43.2H0.512609ZM18.5139 45.552V49.22C18.5139 50.522 17.7579 51.516 16.4699 51.544C15.3919 51.544 14.7339 50.858 14.7339 49.738V45.552H13.1239V50.186C13.1239 51.964 14.1459 53.056 15.8539 53.056C17.0719 53.042 18.0099 52.58 18.5139 51.544V53H20.1239V45.552H18.5139ZM26.7504 47.428L27.3384 46.238C26.6664 45.762 25.6724 45.482 24.7344 45.482C23.3064 45.482 21.9904 46.126 21.9904 47.638C21.9764 50.326 25.8964 49.472 25.8964 50.998C25.8964 51.558 25.3644 51.796 24.6784 51.796C23.8664 51.796 22.8304 51.446 22.1864 50.872L21.6124 52.02C22.3544 52.692 23.5164 53.056 24.6084 53.056C26.1064 53.056 27.4644 52.37 27.4644 50.844C27.4784 48.142 23.5164 48.884 23.5164 47.512C23.5164 46.98 23.9784 46.77 24.6084 46.77C25.2664 46.77 26.0924 47.022 26.7504 47.428ZM29.8825 42.458C29.3505 42.458 28.9445 42.864 28.9445 43.424C28.9445 43.97 29.3505 44.376 29.8825 44.376C30.4145 44.376 30.8205 43.97 30.8205 43.424C30.8205 42.864 30.4145 42.458 29.8825 42.458ZM29.0845 45.552V53H30.6805V45.552H29.0845ZM38.313 47.75L39.195 46.714C38.509 45.93 37.459 45.496 36.115 45.496C33.903 45.496 32.363 47.036 32.363 49.29C32.363 51.53 33.903 53.056 36.115 53.056C37.529 53.056 38.607 52.552 39.279 51.67L38.383 50.774C37.879 51.362 37.123 51.67 36.185 51.67C34.897 51.67 33.973 50.704 33.973 49.29C33.973 47.876 34.897 46.91 36.185 46.91C37.081 46.896 37.795 47.218 38.313 47.75Z" fill="white"/>
<path d="M14.8541 6.29167H3.18742C2.99403 6.29167 2.80857 6.21485 2.67182 6.07811C2.53507 5.94136 2.45825 5.7559 2.45825 5.56251C2.45825 5.36912 2.53507 5.18366 2.67182 5.04691C2.80857 4.91017 2.99403 4.83334 3.18742 4.83334H14.8541C15.0475 4.83334 15.2329 4.91017 15.3697 5.04691C15.5064 5.18366 15.5832 5.36912 15.5832 5.56251C15.5832 5.7559 15.5064 5.94136 15.3697 6.07811C15.2329 6.21485 15.0475 6.29167 14.8541 6.29167Z" fill="white"/>
<path d="M14.8541 12.125H3.18742C2.99403 12.125 2.80857 12.0482 2.67182 11.9115C2.53507 11.7747 2.45825 11.5892 2.45825 11.3959C2.45825 11.2025 2.53507 11.017 2.67182 10.8803C2.80857 10.7435 2.99403 10.6667 3.18742 10.6667H14.8541C15.0475 10.6667 15.2329 10.7435 15.3697 10.8803C15.5064 11.017 15.5832 11.2025 15.5832 11.3959C15.5832 11.5892 15.5064 11.7747 15.3697 11.9115C15.2329 12.0482 15.0475 12.125 14.8541 12.125Z" fill="white"/>
<path d="M14.8541 17.9583H3.18742C2.99403 17.9583 2.80857 17.8815 2.67182 17.7448C2.53507 17.608 2.45825 17.4226 2.45825 17.2292C2.45825 17.0358 2.53507 16.8503 2.67182 16.7136C2.80857 16.5768 2.99403 16.5 3.18742 16.5H14.8541C15.0475 16.5 15.2329 16.5768 15.3697 16.7136C15.5064 16.8503 15.5832 17.0358 15.5832 17.2292C15.5832 17.4226 15.5064 17.608 15.3697 17.7448C15.2329 17.8815 15.0475 17.9583 14.8541 17.9583Z" fill="white"/>
<path d="M25.0625 6.29168C23.7093 6.28994 22.4121 5.75163 21.4552 4.79478C20.4984 3.83794 19.9601 2.54069 19.9583 1.18751C19.9583 0.994123 19.8815 0.808657 19.7448 0.671911C19.608 0.535166 19.4225 0.458344 19.2292 0.458344C19.0358 0.458344 18.8503 0.535166 18.7136 0.671911C18.5768 0.808657 18.5 0.994123 18.5 1.18751V23.3673C17.6344 22.4348 16.4703 21.8339 15.2089 21.6683C13.9474 21.5028 12.6677 21.7829 11.5908 22.4605C10.5139 23.138 9.7074 24.1703 9.31063 25.3792C8.91385 26.588 8.95169 27.8975 9.41762 29.0814C9.88355 30.2653 10.7483 31.2494 11.8625 31.8636C12.9768 32.4778 14.2705 32.6836 15.5203 32.4454C16.7701 32.2073 17.8975 31.5401 18.7078 30.5592C19.5181 29.5783 19.9604 28.3452 19.9583 27.0729V9.0472C20.6381 10.61 21.7591 11.9405 23.1837 12.8757C24.6084 13.8109 26.2749 14.3103 27.9792 14.3125H27.9901C29.9546 14.3074 31.8533 15.0202 33.3291 16.317C33.4342 16.4101 33.564 16.4709 33.7029 16.492C33.8418 16.5131 33.9838 16.4937 34.1119 16.436C34.24 16.3783 34.3487 16.2848 34.4249 16.1668C34.5012 16.0488 34.5417 15.9113 34.5417 15.7708C34.5388 13.2577 33.5391 10.8483 31.7621 9.07126C29.985 7.2942 27.5756 6.29457 25.0625 6.29168Z" fill="white"/>
</svg>
