<svg width="281" height="43" viewBox="0 0 281 43" fill="none" xmlns="http://www.w3.org/2000/svg">
<path fill-rule="evenodd" clip-rule="evenodd" d="M0 6C0 2.68629 2.68629 0 6 0H275C278.314 0 281 2.68629 281 6V37C281 40.3137 278.314 43 275 43H5.99999C2.68629 43 0 40.3137 0 37L0 6Z" fill="#E74948"/>
<path d="M112.101 21.328V14.8H109.957V21.328C109.957 24.272 111.877 26.096 114.933 26.096C117.973 26.096 119.845 24.272 119.845 21.328V14.8H117.701V21.328C117.701 23.12 116.629 24.176 114.933 24.176C113.237 24.176 112.101 23.104 112.101 21.328ZM127.328 17.376C126.048 17.376 125.056 17.904 124.448 18.848V17.44H122.368V29.104H124.448V24.608C125.072 25.552 126.064 26.08 127.36 26.08C129.792 26.08 131.376 24.336 131.376 21.76C131.376 19.136 129.744 17.376 127.328 17.376ZM126.864 24.288C125.44 24.288 124.448 23.232 124.448 21.696C124.448 20.192 125.44 19.12 126.864 19.12C128.272 19.12 129.264 20.192 129.264 21.696C129.264 23.216 128.272 24.288 126.864 24.288ZM133.259 14.128V26H135.339V14.128H133.259ZM141.751 17.376C139.047 17.376 137.223 19.12 137.223 21.712C137.223 24.32 139.047 26.08 141.751 26.08C144.423 26.08 146.247 24.32 146.247 21.712C146.247 19.12 144.423 17.376 141.751 17.376ZM141.751 19.152C143.159 19.152 144.151 20.208 144.151 21.744C144.151 23.28 143.159 24.336 141.751 24.336C140.311 24.336 139.319 23.28 139.319 21.744C139.319 20.208 140.311 19.152 141.751 19.152ZM155.158 26L155.142 20.4C155.126 18.496 153.862 17.36 151.622 17.36C150.054 17.36 149.094 17.728 147.862 18.416L148.614 19.856C149.494 19.328 150.358 19.056 151.158 19.056C152.438 19.056 153.094 19.648 153.094 20.64V20.864H150.598C148.518 20.88 147.35 21.856 147.35 23.44C147.35 24.96 148.502 26.096 150.342 26.096C151.558 26.096 152.518 25.712 153.11 24.96V26H155.158ZM150.838 24.496C149.894 24.496 149.318 24.032 149.318 23.312C149.318 22.56 149.83 22.256 150.934 22.256H153.094V23.024C152.982 23.856 152.038 24.496 150.838 24.496ZM163.667 14.128V18.848C163.043 17.888 162.051 17.36 160.739 17.36C158.339 17.36 156.707 19.104 156.707 21.696C156.707 24.304 158.339 26.096 160.787 26.096C162.067 26.096 163.059 25.568 163.667 24.624V26H165.747V14.128H163.667ZM161.235 24.352C159.795 24.352 158.819 23.28 158.803 21.744C158.819 20.224 159.811 19.136 161.235 19.136C162.675 19.136 163.667 20.208 163.667 21.744C163.667 23.28 162.675 24.352 161.235 24.352ZM173.29 14.8V26H175.434V21.568H180.506V19.696H175.434V16.672H181.002L181.018 14.8H173.29ZM183.578 13.84C182.922 13.84 182.458 14.32 182.458 14.992C182.458 15.664 182.922 16.144 183.578 16.144C184.234 16.144 184.698 15.664 184.698 14.992C184.698 14.32 184.234 13.84 183.578 13.84ZM182.538 17.44V26H184.618V17.44H182.538ZM187.274 14.128V26H189.354V14.128H187.274ZM195.591 17.376C193.031 17.376 191.239 19.136 191.239 21.744C191.239 24.32 192.983 26.08 195.639 26.08C197.143 26.08 198.391 25.536 199.239 24.608L198.119 23.44C197.511 24.064 196.695 24.4 195.815 24.4C194.567 24.4 193.639 23.664 193.367 22.448H199.687C199.895 19.344 198.599 17.376 195.591 17.376ZM193.319 21.056C193.511 19.792 194.375 18.992 195.607 18.992C196.903 18.992 197.751 19.792 197.799 21.056H193.319Z" fill="white"/>
<g opacity="0.7">
<path d="M95.3333 19.3333H88.6667V12.6667C88.6667 12.2246 88.4911 11.8007 88.1785 11.4882C87.8659 11.1756 87.442 11 87 11C86.558 11 86.134 11.1756 85.8215 11.4882C85.5089 11.8007 85.3333 12.2246 85.3333 12.6667V19.3333H78.6667C78.2246 19.3333 77.8007 19.5089 77.4882 19.8215C77.1756 20.134 77 20.558 77 21C77 21.442 77.1756 21.8659 77.4882 22.1785C77.8007 22.4911 78.2246 22.6667 78.6667 22.6667H85.3333V29.3333C85.3333 29.7754 85.5089 30.1993 85.8215 30.5118C86.134 30.8244 86.558 31 87 31C87.442 31 87.8659 30.8244 88.1785 30.5118C88.4911 30.1993 88.6667 29.7754 88.6667 29.3333V22.6667H95.3333C95.7754 22.6667 96.1993 22.4911 96.5118 22.1785C96.8244 21.8659 97 21.442 97 21C97 20.558 96.8244 20.134 96.5118 19.8215C96.1993 19.5089 95.7754 19.3333 95.3333 19.3333Z" fill="white"/>
</g>
</svg>
