<svg width="262" height="31" viewBox="0 0 262 31" fill="none" xmlns="http://www.w3.org/2000/svg">
<path d="M18.6719 16.5938C18.4427 19.0208 17.5469 20.9167 15.9844 22.2812C14.4219 23.6354 12.3438 24.3125 9.75 24.3125C7.9375 24.3125 6.33854 23.8854 4.95312 23.0312C3.57812 22.1667 2.51562 20.9427 1.76562 19.3594C1.01562 17.776 0.625 15.9375 0.59375 13.8438V11.7188C0.59375 9.57292 0.973958 7.68229 1.73438 6.04688C2.49479 4.41146 3.58333 3.15104 5 2.26562C6.42708 1.38021 8.07292 0.9375 9.9375 0.9375C12.4479 0.9375 14.4688 1.61979 16 2.98438C17.5312 4.34896 18.4219 6.27604 18.6719 8.76562H14.7344C14.5469 7.13021 14.0677 5.95312 13.2969 5.23438C12.5365 4.50521 11.4167 4.14062 9.9375 4.14062C8.21875 4.14062 6.89583 4.77083 5.96875 6.03125C5.05208 7.28125 4.58333 9.11979 4.5625 11.5469V13.5625C4.5625 16.0208 5 17.8958 5.875 19.1875C6.76042 20.4792 8.05208 21.125 9.75 21.125C11.3021 21.125 12.4688 20.776 13.25 20.0781C14.0312 19.3802 14.526 18.2188 14.7344 16.5938H18.6719ZM21.1406 15.3906C21.1406 13.7344 21.4688 12.2448 22.125 10.9219C22.7812 9.58854 23.7031 8.56771 24.8906 7.85938C26.0781 7.14062 27.4427 6.78125 28.9844 6.78125C31.2656 6.78125 33.1146 7.51562 34.5312 8.98438C35.9583 10.4531 36.7292 12.401 36.8438 14.8281L36.8594 15.7188C36.8594 17.3854 36.5365 18.875 35.8906 20.1875C35.2552 21.5 34.3385 22.5156 33.1406 23.2344C31.9531 23.9531 30.5781 24.3125 29.0156 24.3125C26.6302 24.3125 24.7188 23.5208 23.2812 21.9375C21.8542 20.3438 21.1406 18.224 21.1406 15.5781V15.3906ZM24.9375 15.7188C24.9375 17.4583 25.2969 18.8229 26.0156 19.8125C26.7344 20.7917 27.7344 21.2812 29.0156 21.2812C30.2969 21.2812 31.2917 20.7812 32 19.7812C32.7188 18.7812 33.0781 17.3177 33.0781 15.3906C33.0781 13.6823 32.7083 12.3281 31.9688 11.3281C31.2396 10.3281 30.2448 9.82812 28.9844 9.82812C27.7448 9.82812 26.7604 10.3229 26.0312 11.3125C25.3021 12.2917 24.9375 13.7604 24.9375 15.7188ZM54.9219 18.7656L57.6094 7.09375H61.3125L56.7031 24H53.5781L49.9531 12.3906L46.3906 24H43.2656L38.6406 7.09375H42.3438L45.0781 18.6406L48.5469 7.09375H51.4062L54.9219 18.7656ZM78.6875 15.7188C78.6875 18.3438 78.099 20.4323 76.9219 21.9844C75.7552 23.5365 74.1458 24.3125 72.0938 24.3125C70.1146 24.3125 68.5729 23.599 67.4688 22.1719L67.2812 24H63.8438V0H67.6406V8.71875C68.7344 7.42708 70.2083 6.78125 72.0625 6.78125C74.125 6.78125 75.7448 7.54688 76.9219 9.07812C78.099 10.6094 78.6875 12.75 78.6875 15.5V15.7188ZM74.8906 15.3906C74.8906 13.5573 74.5677 12.1823 73.9219 11.2656C73.276 10.349 72.3385 9.89062 71.1094 9.89062C69.4635 9.89062 68.3073 10.6094 67.6406 12.0469V19.0156C68.3177 20.4844 69.4844 21.2188 71.1406 21.2188C72.3281 21.2188 73.2448 20.776 73.8906 19.8906C74.5365 19.0052 74.8698 17.6667 74.8906 15.875V15.3906ZM81.1719 15.3906C81.1719 13.7344 81.5 12.2448 82.1562 10.9219C82.8125 9.58854 83.7344 8.56771 84.9219 7.85938C86.1094 7.14062 87.474 6.78125 89.0156 6.78125C91.2969 6.78125 93.1458 7.51562 94.5625 8.98438C95.9896 10.4531 96.7604 12.401 96.875 14.8281L96.8906 15.7188C96.8906 17.3854 96.5677 18.875 95.9219 20.1875C95.2865 21.5 94.3698 22.5156 93.1719 23.2344C91.9844 23.9531 90.6094 24.3125 89.0469 24.3125C86.6615 24.3125 84.75 23.5208 83.3125 21.9375C81.8854 20.3438 81.1719 18.224 81.1719 15.5781V15.3906ZM84.9688 15.7188C84.9688 17.4583 85.3281 18.8229 86.0469 19.8125C86.7656 20.7917 87.7656 21.2812 89.0469 21.2812C90.3281 21.2812 91.3229 20.7812 92.0312 19.7812C92.75 18.7812 93.1094 17.3177 93.1094 15.3906C93.1094 13.6823 92.7396 12.3281 92 11.3281C91.2708 10.3281 90.276 9.82812 89.0156 9.82812C87.776 9.82812 86.7917 10.3229 86.0625 11.3125C85.3333 12.2917 84.9688 13.7604 84.9688 15.7188ZM105.766 18.5625L109.203 7.09375H113.25L106.531 26.5625C105.5 29.4062 103.75 30.8281 101.281 30.8281C100.729 30.8281 100.12 30.7344 99.4531 30.5469V27.6094L100.172 27.6562C101.13 27.6562 101.849 27.4792 102.328 27.125C102.818 26.7812 103.203 26.1979 103.484 25.375L104.031 23.9219L98.0938 7.09375H102.188L105.766 18.5625ZM124.922 19.4062C124.922 18.7292 124.641 18.2135 124.078 17.8594C123.526 17.5052 122.604 17.1927 121.312 16.9219C120.021 16.651 118.943 16.3073 118.078 15.8906C116.182 14.974 115.234 13.6458 115.234 11.9062C115.234 10.4479 115.849 9.22917 117.078 8.25C118.307 7.27083 119.87 6.78125 121.766 6.78125C123.786 6.78125 125.417 7.28125 126.656 8.28125C127.906 9.28125 128.531 10.5781 128.531 12.1719H124.734C124.734 11.4427 124.464 10.8385 123.922 10.3594C123.38 9.86979 122.661 9.625 121.766 9.625C120.932 9.625 120.25 9.81771 119.719 10.2031C119.198 10.5885 118.938 11.1042 118.938 11.75C118.938 12.3333 119.182 12.7865 119.672 13.1094C120.161 13.4323 121.151 13.7604 122.641 14.0938C124.13 14.4167 125.297 14.8073 126.141 15.2656C126.995 15.7135 127.625 16.2552 128.031 16.8906C128.448 17.526 128.656 18.2969 128.656 19.2031C128.656 20.724 128.026 21.9583 126.766 22.9062C125.505 23.8438 123.854 24.3125 121.812 24.3125C120.427 24.3125 119.193 24.0625 118.109 23.5625C117.026 23.0625 116.182 22.375 115.578 21.5C114.974 20.625 114.672 19.6823 114.672 18.6719H118.359C118.411 19.5677 118.75 20.2604 119.375 20.75C120 21.2292 120.828 21.4688 121.859 21.4688C122.859 21.4688 123.62 21.2812 124.141 20.9062C124.661 20.5208 124.922 20.0208 124.922 19.4062ZM146.891 21.2812C147.839 21.2812 148.625 21.0052 149.25 20.4531C149.875 19.901 150.208 19.2188 150.25 18.4062H153.828C153.786 19.4583 153.458 20.4427 152.844 21.3594C152.229 22.2656 151.396 22.9844 150.344 23.5156C149.292 24.0469 148.156 24.3125 146.938 24.3125C144.573 24.3125 142.698 23.5469 141.312 22.0156C139.927 20.4844 139.234 18.3698 139.234 15.6719V15.2812C139.234 12.7083 139.922 10.651 141.297 9.10938C142.672 7.55729 144.547 6.78125 146.922 6.78125C148.932 6.78125 150.568 7.36979 151.828 8.54688C153.099 9.71354 153.766 11.25 153.828 13.1562H150.25C150.208 12.1875 149.875 11.3906 149.25 10.7656C148.635 10.1406 147.849 9.82812 146.891 9.82812C145.661 9.82812 144.714 10.276 144.047 11.1719C143.38 12.0573 143.042 13.4062 143.031 15.2188V15.8281C143.031 17.6615 143.359 19.0312 144.016 19.9375C144.682 20.8333 145.641 21.2812 146.891 21.2812ZM166.797 24C166.63 23.6771 166.484 23.151 166.359 22.4219C165.151 23.6823 163.672 24.3125 161.922 24.3125C160.224 24.3125 158.839 23.8281 157.766 22.8594C156.693 21.8906 156.156 20.6927 156.156 19.2656C156.156 17.4635 156.823 16.0833 158.156 15.125C159.5 14.1562 161.417 13.6719 163.906 13.6719H166.234V12.5625C166.234 11.6875 165.99 10.9896 165.5 10.4688C165.01 9.9375 164.266 9.67188 163.266 9.67188C162.401 9.67188 161.693 9.89062 161.141 10.3281C160.589 10.7552 160.312 11.3021 160.312 11.9688H156.516C156.516 11.0417 156.823 10.1771 157.438 9.375C158.052 8.5625 158.885 7.92708 159.938 7.46875C161 7.01042 162.182 6.78125 163.484 6.78125C165.464 6.78125 167.042 7.28125 168.219 8.28125C169.396 9.27083 170 10.6667 170.031 12.4688V20.0938C170.031 21.6146 170.245 22.8281 170.672 23.7344V24H166.797ZM162.625 21.2656C163.375 21.2656 164.078 21.0833 164.734 20.7188C165.401 20.3542 165.901 19.8646 166.234 19.25V16.0625H164.188C162.781 16.0625 161.724 16.3073 161.016 16.7969C160.307 17.2865 159.953 17.9792 159.953 18.875C159.953 19.6042 160.193 20.1875 160.672 20.625C161.161 21.0521 161.812 21.2656 162.625 21.2656ZM178.047 24H174.25V0H178.047V24ZM189.641 24.3125C187.234 24.3125 185.281 23.5573 183.781 22.0469C182.292 20.526 181.547 18.5052 181.547 15.9844V15.5156C181.547 13.8281 181.87 12.3229 182.516 11C183.172 9.66667 184.089 8.63021 185.266 7.89062C186.443 7.15104 187.755 6.78125 189.203 6.78125C191.505 6.78125 193.281 7.51562 194.531 8.98438C195.792 10.4531 196.422 12.5312 196.422 15.2188V16.75H185.375C185.49 18.1458 185.953 19.25 186.766 20.0625C187.589 20.875 188.62 21.2812 189.859 21.2812C191.599 21.2812 193.016 20.5781 194.109 19.1719L196.156 21.125C195.479 22.1354 194.573 22.9219 193.438 23.4844C192.312 24.0365 191.047 24.3125 189.641 24.3125ZM189.188 9.82812C188.146 9.82812 187.302 10.1927 186.656 10.9219C186.021 11.651 185.615 12.6667 185.438 13.9688H192.672V13.6875C192.589 12.4167 192.25 11.4583 191.656 10.8125C191.062 10.1562 190.24 9.82812 189.188 9.82812ZM202.906 7.09375L203.016 9.04688C204.266 7.53646 205.906 6.78125 207.938 6.78125C211.458 6.78125 213.25 8.79688 213.312 12.8281V24H209.516V13.0469C209.516 11.974 209.281 11.1823 208.812 10.6719C208.354 10.151 207.599 9.89062 206.547 9.89062C205.016 9.89062 203.875 10.5833 203.125 11.9688V24H199.328V7.09375H202.906ZM216.484 15.4219C216.484 12.8177 217.089 10.7292 218.297 9.15625C219.505 7.57292 221.125 6.78125 223.156 6.78125C224.948 6.78125 226.396 7.40625 227.5 8.65625V0H231.297V24H227.859L227.672 22.25C226.536 23.625 225.021 24.3125 223.125 24.3125C221.146 24.3125 219.542 23.5156 218.312 21.9219C217.094 20.3281 216.484 18.1615 216.484 15.4219ZM220.281 15.75C220.281 17.4688 220.609 18.8125 221.266 19.7812C221.932 20.7396 222.875 21.2188 224.094 21.2188C225.646 21.2188 226.781 20.526 227.5 19.1406V11.9219C226.802 10.5677 225.677 9.89062 224.125 9.89062C222.896 9.89062 221.948 10.3802 221.281 11.3594C220.615 12.3281 220.281 13.7917 220.281 15.75ZM245.359 24C245.193 23.6771 245.047 23.151 244.922 22.4219C243.714 23.6823 242.234 24.3125 240.484 24.3125C238.786 24.3125 237.401 23.8281 236.328 22.8594C235.255 21.8906 234.719 20.6927 234.719 19.2656C234.719 17.4635 235.385 16.0833 236.719 15.125C238.062 14.1562 239.979 13.6719 242.469 13.6719H244.797V12.5625C244.797 11.6875 244.552 10.9896 244.062 10.4688C243.573 9.9375 242.828 9.67188 241.828 9.67188C240.964 9.67188 240.255 9.89062 239.703 10.3281C239.151 10.7552 238.875 11.3021 238.875 11.9688H235.078C235.078 11.0417 235.385 10.1771 236 9.375C236.615 8.5625 237.448 7.92708 238.5 7.46875C239.562 7.01042 240.745 6.78125 242.047 6.78125C244.026 6.78125 245.604 7.28125 246.781 8.28125C247.958 9.27083 248.562 10.6667 248.594 12.4688V20.0938C248.594 21.6146 248.807 22.8281 249.234 23.7344V24H245.359ZM241.188 21.2656C241.938 21.2656 242.641 21.0833 243.297 20.7188C243.964 20.3542 244.464 19.8646 244.797 19.25V16.0625H242.75C241.344 16.0625 240.286 16.3073 239.578 16.7969C238.87 17.2865 238.516 17.9792 238.516 18.875C238.516 19.6042 238.755 20.1875 239.234 20.625C239.724 21.0521 240.375 21.2656 241.188 21.2656ZM261.422 10.5625C260.922 10.4792 260.406 10.4375 259.875 10.4375C258.135 10.4375 256.964 11.1042 256.359 12.4375V24H252.562V7.09375H256.188L256.281 8.98438C257.198 7.51562 258.469 6.78125 260.094 6.78125C260.635 6.78125 261.083 6.85417 261.438 7L261.422 10.5625Z" fill="black"/>
</svg>
