<svg width="80" height="40" viewBox="0 0 80 40" fill="none" xmlns="http://www.w3.org/2000/svg">
<g opacity="0.2">
<path d="M37.5593 28.952C37.2621 28.0811 36.815 27.3297 36.2179 26.6986C35.0287 25.4414 33.262 24.388 30.9175 23.5387C30.3739 23.3348 29.7538 23.1311 29.0574 22.9271C28.3609 22.7232 27.8172 22.5619 27.4264 22.4429C27.0356 22.3241 26.645 22.1796 26.2542 22.0099C25.8636 21.8399 25.5833 21.67 25.4133 21.5C25.2434 21.3302 25.1585 21.1434 25.1585 20.9394C25.1585 20.3618 25.787 20.073 27.0441 20.073C29.1943 20.073 31.2194 20.8228 33.1197 22.322C33.279 22.4477 33.4745 22.5193 33.6776 22.5193C33.9319 22.5193 34.174 22.4105 34.3429 22.2207L37.5593 18.6023V28.952ZM56.3144 25.4754L65.0766 14.892C65.261 14.6692 65.28 14.3525 65.1237 14.1093C65.0014 13.9192 64.7909 13.8044 64.565 13.8044H54.6836L47.5484 23.182V4.76232C47.5484 4.41445 47.366 4.09217 47.0679 3.91324C46.9133 3.82057 46.7372 3.77203 46.5582 3.77203C46.5238 3.77203 46.4894 3.7739 46.4549 3.7775L37.5593 4.87779V16.5868C36.5475 15.6216 35.2008 14.8296 33.5168 14.2121C31.4782 13.4645 29.2866 13.0909 26.9422 13.0909C23.5446 13.0909 20.8435 13.8213 18.8389 15.2823C16.834 16.7434 15.8319 18.731 15.8319 21.2452C15.8319 22.6383 16.1291 23.853 16.7238 24.8893C17.3183 25.9255 18.1931 26.7749 19.3485 27.4376C20.5036 28.1001 21.5485 28.6013 22.4828 28.9411C23.4172 29.2809 24.6318 29.6547 26.1269 30.0622C27.8257 30.5718 28.6751 31.1156 28.6751 31.6933C28.6751 32.3727 28.0805 32.7125 26.8913 32.7125C25.5663 32.7125 24.1817 32.4067 22.7376 31.795C21.414 31.2344 20.3257 30.5882 19.4732 29.8563C19.3248 29.7289 19.1385 29.6547 18.943 29.6547H18.9035C18.6686 29.6547 18.4455 29.7583 18.2942 29.9379L14.6341 34.2754C14.486 34.4509 14.4048 34.6732 14.4048 34.9029C14.4048 35.1439 14.4948 35.3752 14.6545 35.5553C15.7997 36.8464 17.4152 37.895 19.5013 38.7009C21.7437 39.5673 24.1393 40.0005 26.6874 40.0005C30.0851 40.0005 32.8202 39.2614 34.8929 37.7835C36.1839 36.863 37.0725 35.7543 37.5593 34.4578V39.287H47.5484V31.795L48.7716 30.368L54.4797 39.287H64.9069C65.1422 39.287 65.3614 39.1673 65.4886 38.9694C65.6422 38.7305 65.6342 38.4219 65.4681 38.1914L56.3144 25.4754Z" fill="black"/>
<path d="M12.06 37.8556C11.336 37.0393 10.9373 35.9908 10.9373 34.903C10.9373 33.8564 11.309 32.8395 11.9839 32.0399L15.0423 28.4151C14.5316 27.865 14.0886 27.2639 13.7159 26.6146C12.8191 25.0513 12.3644 23.2449 12.3644 21.2454C12.3644 17.6246 13.8968 14.5939 16.7962 12.4808C19.3969 10.5854 22.8104 9.62435 26.9415 9.62435C29.4512 9.62435 31.8533 9.99995 34.0918 10.7418V5.28986L2.34178 9.1882C1.00469 9.35234 0 10.488 0 11.8351V37.3336C0 38.9353 1.40203 40.1755 2.9918 39.9804L12.948 38.758C12.6331 38.4684 12.3368 38.1677 12.06 37.8556Z" fill="black"/>
<path d="M77.0085 0.0202596L50.7417 3.2454C50.9169 3.72647 51.0128 4.23888 51.0128 4.76263V12.9007L51.9221 11.7054L52.9628 10.3378H64.5627C65.9747 10.3378 67.2737 11.0469 68.0374 12.2348C69.0145 13.7546 68.8969 15.711 67.7446 17.103L60.6903 25.6237L65.5 32.3054L77.6585 30.8125C78.9954 30.6484 80.0001 29.5128 80.0001 28.1655V2.66712C80.0001 1.06535 78.5982 -0.174945 77.0085 0.0202596Z" fill="black"/>
</g>
</svg>
