<svg width="80" height="40" viewBox="0 0 80 40" fill="none" xmlns="http://www.w3.org/2000/svg">
<path d="M37.5592 28.9512C37.2619 28.0803 36.8149 27.3289 36.2178 26.6979C35.0286 25.4406 33.2619 24.3873 30.9174 23.5379C30.3738 23.3341 29.7537 23.1303 29.0572 22.9263C28.3608 22.7224 27.8171 22.5611 27.4263 22.4422C27.0355 22.3234 26.6449 22.1788 26.2541 22.0091C25.8634 21.8391 25.5832 21.6692 25.4132 21.4992C25.2433 21.3295 25.1584 21.1427 25.1584 20.9387C25.1584 20.3611 25.7869 20.0722 27.044 20.0722C29.1942 20.0722 31.2193 20.822 33.1196 22.3212C33.2789 22.447 33.4744 22.5186 33.6775 22.5186C33.9317 22.5186 34.1739 22.4098 34.3428 22.2199L37.5592 18.6016V28.9512ZM56.3143 25.4746L65.0765 14.8912C65.2609 14.6684 65.2799 14.3517 65.1236 14.1085C65.0013 13.9184 64.7908 13.8036 64.5649 13.8036H54.6835L47.5483 23.1812V4.76153C47.5483 4.41365 47.3659 4.09138 47.0678 3.91244C46.9132 3.81977 46.7371 3.77124 46.5581 3.77124C46.5237 3.77124 46.4893 3.77311 46.4548 3.77671L37.5592 4.877V16.586C36.5474 15.6208 35.2007 14.8288 33.5167 14.2113C31.4781 13.4637 29.2864 13.0901 26.9421 13.0901C23.5445 13.0901 20.8433 13.8205 18.8388 15.2815C16.8339 16.7426 15.8318 18.7302 15.8318 21.2444C15.8318 22.6375 16.129 23.8522 16.7236 24.8885C17.3182 25.9248 18.193 26.7741 19.3484 27.4368C20.5035 28.0993 21.5484 28.6006 22.4827 28.9403C23.4171 29.2802 24.6317 29.6539 26.1268 30.0614C27.8256 30.571 28.675 31.1149 28.675 31.6925C28.675 32.372 28.0804 32.7117 26.8912 32.7117C25.5662 32.7117 24.1815 32.406 22.7375 31.7942C21.4139 31.2337 20.3256 30.5874 19.473 29.8555C19.3246 29.7282 19.1384 29.6539 18.9429 29.6539H18.9034C18.6685 29.6539 18.4454 29.7575 18.2941 29.9371L14.634 34.2747C14.4859 34.4501 14.4047 34.6724 14.4047 34.9022C14.4047 35.1431 14.4947 35.3744 14.6544 35.5546C15.7996 36.8457 17.4151 37.8942 19.5012 38.7001C21.7436 39.5665 24.1391 39.9997 26.6873 39.9997C30.085 39.9997 32.8201 39.2607 34.8928 37.7828C36.1838 36.8622 37.0723 35.7535 37.5592 34.4571V39.2863H47.5483V31.7942L48.7715 30.3673L54.4796 39.2863H64.9068C65.1421 39.2863 65.3613 39.1665 65.4885 38.9686C65.6421 38.7297 65.6341 38.4212 65.468 38.1906L56.3143 25.4746Z" fill="white"/>
<path d="M12.06 37.8548C11.336 37.0385 10.9373 35.99 10.9373 34.9022C10.9373 33.8557 11.309 32.8387 11.9839 32.0391L15.0423 28.4144C14.5316 27.8642 14.0886 27.2631 13.7159 26.6138C12.8191 25.0506 12.3644 23.2441 12.3644 21.2446C12.3644 17.6239 13.8968 14.5931 16.7962 12.48C19.3969 10.5846 22.8103 9.62355 26.9415 9.62355C29.4512 9.62355 31.8533 9.99916 34.0918 10.741V5.28906L2.34178 9.18741C1.00469 9.35155 0 10.4872 0 11.8343V37.3328C0 38.9346 1.40203 40.1747 2.9918 39.9797L12.948 38.7572C12.6331 38.4676 12.3368 38.167 12.06 37.8548Z" fill="#FFC200"/>
<path d="M77.0083 0.0195271L50.7416 3.24466C50.9168 3.72574 51.0127 4.23815 51.0127 4.76189V12.8999L51.922 11.7047L52.9627 10.3371H64.5625C65.9746 10.3371 67.2735 11.0462 68.0373 12.2341C69.0144 13.7538 68.8968 15.7103 67.7445 17.1023L60.6902 25.623L65.4999 32.3046L77.6583 30.8118C78.9952 30.6476 79.9999 29.512 79.9999 28.1648V2.66638C79.9999 1.06462 78.598 -0.175677 77.0083 0.0195271Z" fill="#FFC200"/>
</svg>