<svg width="19" height="22" viewBox="0 0 19 22" fill="none" xmlns="http://www.w3.org/2000/svg">
<path fill-rule="evenodd" clip-rule="evenodd" d="M18.9289 10.7355L9.99543 20.7625C9.90001 20.916 9.72811 20.994 9.55027 20.9991C9.48343 21.0016 9.46717 21.0028 9.45059 20.9991C9.27264 20.994 9.10085 20.916 9.00531 20.7625L0.0714628 10.7355C-0.0758292 10.5015 0.0118468 10.2007 0.267515 10.0661C0.522355 9.9302 0.848288 10.0107 0.995925 10.2448L9.50004 19.7924L18.0055 10.2448C18.1525 10.0107 18.4784 9.9302 18.7333 10.0661C18.989 10.2007 19.0765 10.5015 18.9289 10.7355Z" fill="white"/>
<path fill-rule="evenodd" clip-rule="evenodd" d="M18.9289 0.735476L9.99543 10.7625C9.90001 10.916 9.72811 10.994 9.55027 10.9991C9.48343 11.0016 9.46717 11.0028 9.45059 10.9991C9.27264 10.994 9.10085 10.916 9.00531 10.7625L0.0714628 0.735476C-0.0758292 0.501452 0.0118468 0.200718 0.267515 0.0660937C0.522355 -0.0698043 0.848288 0.0107237 0.995925 0.244762L9.50004 9.7924L18.0055 0.244762C18.1525 0.0107237 18.4784 -0.0698043 18.7333 0.0660937C18.989 0.200718 19.0765 0.501452 18.9289 0.735476Z" fill="white" fill-opacity="0.5"/>
</svg>
