<svg width="304" height="192" fill="none" xmlns="http://www.w3.org/2000/svg"><path d="M171.6 4.4l-3.2-5.6 1.3-.8h1.7l2.9 4.9-2.7 1.5zm22 19.8l3 .3.7-6.4-3-.3-.7 6.4zm99.4 78.2l2.6.9 1.8-5.5-2.6-.9-1.8 5.5zm-69.5-14.2l-2-.7 1.4-4.3 2 .7-1.4 4.3zm-12.2-36.3l2.7 1.5 3.2-5.6-2.7-1.5-3.2 5.6zm44.2-13.7l-3.4-4.7 2.2-1.6 3.4 4.7-2.2 1.6zM272.8.3l1 6.3 3-.5-1-6.3-3 .5zm16 32.3l2.2 6.6 3.2-1.1-2.2-6.6-3.2 1.1zm-79.7.5l1.8 5.5 2.6-.9-1.8-5.5-2.6.9zm64-16.3l1.4 4.3 2-.7-1.4-4.3-2 .7zm-117.5-7l-2.6-.9 1.9-5.5 2.6.9-1.9 5.5zm18.2 14.7l-3-.3.7-6.4 3 .3-.7 6.4zm51.7-3.5l-.2-1.9 4-.5.2 1.9-4 .5zM204 8.1l4.5 2.6 1.2-2.1-4.5-2.6-1.2 2.1zM230.1 39l.9 5.1 2.4-.4-.9-5.1-2.4.4zm12.1-32.8l1 2.6 5.4-2.1-1-2.6-5.4 2.1zm59.3 33.7l-1.5-2.6 5.5-3.3 1.6 2.6-5.6 3.3zm-3.6 23l-.6-3 6.3-1.2.6 3-6.3 1.2z" fill="#FAE5F2"/><path fill-rule="evenodd" clip-rule="evenodd" d="M168.7 131.5c7.8-8.9 16.4-16.2 26.5-22.1 1.3-.7 2.9-1.4 4.3-1.7 4.4-1 12.6 5.5 8.2 11.9-4.1 5.9-9.8 10.6-13.7 16.8-1 1.6-2.1 3.3-2.3 5.3-1.1 11.1 27.3 12.9 34.2 14.3 23.8 4.6 45.2 7.5 67-5 5.1-2.9-15.8-25.7-13.7-31.5.4-1.1 1.2-3.8 2.1-4.6 8-8.3 12.7-2.2 19.3 5 5 5.4 10.6 12 15.1 17.5 4.1 5.1 8.1 12.5 5.8 19.3-1.1 3.3-4.3 5.2-7.3 6.8a262 262 0 00-28.3 18.2c-7 5.1-7.1 12.9-7.6 21.1l-.5 6.8c-.3 2.1-.7 4.4-2.1 6.3-3 4.1-8.6 4.2-11.6 4.3l-13.8.2c-7 0-14-.3-21-1.2-4.9-.7-10.3-1.9-14-6-6.7-7.4-3.5-18.3-8.3-26.5-6.7-12.2-24.3-18.9-35-26.7-5.5-4.1-10-10.5-9.2-17.3.6-4.3 3.1-7.9 5.9-11.2z" fill="#FF8EB3"/><path fill-rule="evenodd" clip-rule="evenodd" d="M260 148.2c1.4-2.8 2-5.7-1.3-8.1-1.8-1.3-4.4-1.5-5.5-3.6-.4-.7-.5-1.5-.8-2.2-1-2.3-3.9-3-6-2s-3.5 3.4-3.9 5.9c-1.1 6.1 2.7 12.5 7.4 15.8 5 3.5 4.2 4.2 7.6-1.6l2.5-4.2z" fill="#FF843C"/><path d="M210 91.6l52.8-66-6.2-5-51.9 64.9 5.3 6.1z" fill="#363073"/><path d="M279.2 42.2l-5.2-6-64 55.4 5.2 6 28.6 33.2c.4.5 1.2.5 1.6.1L307.7 77c.5-.4.5-1.2.1-1.6l-28.6-33.2z" fill="#363073"/><path d="M254 148.2h.1l.6.4c1.1 1 1.2 2.6.2 3.6-.2.3-.5.5-.9.6l2 7.3-3 2.5-1.2.9a79 79 0 01-7.5 5.4c-1-1-1.6-2.5-1.6-4.1v-9.5l-.2-.1c-.3-.1-.8-.5-1.2-1a8.6 8.6 0 011.3-12.6l.3-.2.1-.3.1-.4 7.4 1.5.3 3.5c.1 1.5 1.4 2.7 2.9 2.5h.3z" fill="#000A47"/><path fill-rule="evenodd" clip-rule="evenodd" d="M241.4 149.2l4.3 1.3-.9.8c-1.3 1.3-2.9.7-3.3-1.1l-.1-1zm30.3-111l2.3-2 2.5 2.9.6 5-4.2 3.6-1.2-9.5zm-3.1 13.2l-4.2 3.6-1.2-9.5 4.2-3.6 1.2 9.5zm-12.7 11l4.2-3.6-1.2-9.5-4.2 3.6 1.2 9.5zm-4.3 3.7l-4.2 3.6-1.2-9.5 4.2-3.6 1.2 9.5zm-12.8 11l4.2-3.6-1.2-9.5-4.2 3.6 1.2 9.5zm-4.3 3.8l-4.2 3.6-1.2-9.5 4.2-3.6 1.2 9.5zm-8.5 7.3l-4.2 3.6-1.2-9.5 4.2-3.6 1.2 9.5zM254.7 23l1.9-2.4 2.9 2.4 1.6 4.8-3.5 4.3-2.9-9.1zm-.7 13.5l-3.5 4.3-2.9-9.1 3.5-4.3 2.9 9.1zm-10.5 13.1l3.5-4.3-2.9-9.1-3.5 4.3 2.9 9.1zm-3.5 4.5l-3.5 4.3-2.9-9.1 3.5-4.3 2.9 9.1zm-10.6 13.1l3.5-4.3-2.9-9.1-3.5 4.3 2.9 9.1zm-3.5 4.5l-3.5 4.3-2.9-9.1 3.5-4.3 2.9 9.1zm-7 8.8l-3.5 4.3-2.9-9.1 3.5-4.3 2.9 9.1z" fill="#FBF7F7"/><path fill-rule="evenodd" clip-rule="evenodd" d="M227.3 87.2l-12.1 10.4-10.5-12.2 5.1-6.3 12.4 2.1 5.1 6z" fill="#363073"/><path fill-rule="evenodd" clip-rule="evenodd" d="M239.6 84.3l14 16.2-15.9 13.7-14-16.2 15.9-13.7zm14.6 15.7l-14-16.2 21.5-18.6 14 16.2-21.5 18.6zm-12.6 18.7l-3.5-4.1 54.6-47.2 3.5 4.1-54.6 47.2zm3.8 4.5l-3.4-4L296.6 72l3.4 4-54.6 47.2zM292.3 67l-16 13.9-14-16.2 16-13.9 14 16.2zm-69.6 30.9l22.7 26.3L301.1 76l-22.7-26.3-55.7 48.2z" fill="#FBF7F7"/><path fill-rule="evenodd" clip-rule="evenodd" d="M274.6 106.9c.5.9 1.1 1.7 1.9 2.4.4.3.7.7 1.2.9.5.4 1.1.7 1.5 1.2l.1.1c.8 1 1.5 2 2.2 3.2 3.4-3.5 6.1-4.4 8.7-3.8-2-5.4-4.2-14.5-4.2-15.1 0 0-4.5 3.7-6 5.2 0 .5-.4 1.7-.9 2.2-3.5 3.9-2.9-2.9-6.3-2.6-.3 0-.5.2-.7.5-.3.7.4 1.4.7 2 .5 1.2 1.1 2.6 1.8 3.8zm-50.8-7.8a.9.9 0 00-.6-.6c-3.2-.8-3.8 6-6.6 1.6l-.5-1.5-5.3-6.1-.5 1.4c-.2.7-4 9.1-7.2 14.2 2.8 1 5.5 3.7 6 6.8 2-2.2 3.9-4.7 5.9-6.5l.1-.1c.5-.4 1.1-.7 1.7-.9l1.3-.7c.9-.5 1.6-1.3 2.2-2l2.5-3.5c.3-.7 1.2-1.3 1-2.1z" fill="#000A47"/><circle cx="209.9" cy="84.9" r="1.4" fill="#FBF7F7"/><circle cx="222.4" cy="87.2" r="1.4" fill="#FBF7F7"/><circle cx="216.4" cy="92.4" r="1.4" fill="#FBF7F7"/></svg>
