<svg width="65" height="65" viewBox="0 0 65 65" fill="none" xmlns="http://www.w3.org/2000/svg">
<path d="M17.6042 58.2291C17.3305 58.2291 23.083 34.805 23.083 34.805C23.2232 34.3527 23.5908 34.0062 24.051 33.8938C24.5099 33.7774 24.9979 33.9163 25.3325 34.2509L34.8116 43.73C35.0893 44.0077 35.2322 44.3912 35.2044 44.784C35.1766 45.1754 34.9809 45.5351 34.6662 45.7705L18.4162 57.958C18.1768 58.1392 17.8898 58.2291 17.6042 58.2291Z" fill="#7F7F7F"/>
<path d="M48.7394 60.9374C48.4512 60.9374 48.1642 60.8448 47.9275 60.6663L4.60472 28.1663C4.21196 27.8727 4.00963 27.3913 4.07443 26.906C4.13791 26.4207 4.45926 26.0081 4.91417 25.8256L59.0808 4.15893C59.5424 3.97643 60.0687 4.05579 60.4495 4.37582C60.8317 4.69321 61.0089 5.1944 60.9111 5.68237L50.0672 59.849C49.9759 60.3053 49.6572 60.6822 49.2221 60.8488C49.0661 60.9083 48.9021 60.9374 48.7394 60.9374Z" fill="#E6E6E6"/>
<path d="M17.6055 58.2292C17.5328 58.2292 17.46 58.2239 17.3873 58.212C16.7314 58.1049 16.25 57.5389 16.25 56.875V36.5625C16.25 36.134 16.4537 35.7307 16.7975 35.4755L58.7767 4.32964C59.3519 3.90249 60.1559 3.99771 60.6175 4.54123C61.079 5.08739 61.0367 5.89672 60.5223 6.39263L23.2897 42.1836L18.8882 57.3035C18.7018 57.8629 18.1794 58.2292 17.6055 58.2292Z" fill="#B3B3B3"/>
</svg>
