<svg width="60" height="60" viewBox="0 0 60 60" fill="none" xmlns="http://www.w3.org/2000/svg">
<path fill-rule="evenodd" clip-rule="evenodd" d="M55.6658 48.3954L37.9998 40.6666V27.3333H21.9998V40.6666L21.8333 40.7498L4.33797 48.3954C2.3103 49.2816 0.666504 51.7995 0.666504 54.0122V57.996C0.666504 58.7345 1.26628 59.3333 2.00212 59.3333H57.9976C58.7353 59.3333 59.3332 58.7494 59.3332 57.996V54.0122C59.3332 51.7963 57.6946 49.283 55.6658 48.3954Z" fill="#335262"/>
<path d="M29.9997 35.3333C21.9124 35.3333 15.333 28.7539 15.333 20.6666V15.3333C15.333 7.24605 21.9124 0.666626 29.9997 0.666626C38.0869 0.666626 44.6663 7.24605 44.6663 15.3333V20.6666C44.6663 28.7539 38.0869 35.3333 29.9997 35.3333Z" fill="#5A7A84"/>
</svg>
