<svg width="25" height="25" viewBox="0 0 25 25" fill="none" xmlns="http://www.w3.org/2000/svg">
<path d="M12.4999 5.72919C14.0908 5.72822 15.6307 6.29041 16.8468 7.31617L20.253 4.07242C18.9455 2.86674 17.3749 1.98242 15.6659 1.48964C13.9569 0.99686 12.1566 0.90919 10.4078 1.23359C8.65908 1.55798 7.00999 2.28551 5.59145 3.35844C4.17292 4.43138 3.02399 5.82017 2.23584 7.41461L6.07594 10.3745C6.52379 9.02403 7.38519 7.84869 8.53813 7.01497C9.69107 6.18125 11.0771 5.73142 12.4999 5.72919Z" fill="#D94F3D"/>
<path d="M5.729 12.5C5.72996 11.7775 5.84708 11.0598 6.07587 10.3745L2.23577 7.41461C1.45028 8.99477 1.0415 10.7354 1.0415 12.5C1.0415 14.2647 1.45028 16.0053 2.23577 17.5854L6.07587 14.6255C5.84708 13.9402 5.72996 13.2225 5.729 12.5Z" fill="#F2C042"/>
<path d="M23.4893 10.4167H12.5518V15.1042H18.7497C18.381 16.4296 17.5362 17.5723 16.3773 18.3136L20.1877 21.2511C22.6226 19.0656 24.0533 15.512 23.4893 10.4167Z" fill="#5085ED"/>
<path d="M16.3759 18.3136C15.1984 18.9876 13.8559 19.3191 12.4999 19.2709C11.0771 19.2686 9.69107 18.8188 8.53813 17.9851C7.38519 17.1514 6.52379 15.976 6.07594 14.6255L2.23584 17.5854C3.18435 19.4975 4.64753 21.1069 6.46081 22.2328C8.27409 23.3586 10.3655 23.9562 12.4999 23.9584C15.3084 24.0347 18.046 23.0701 20.1864 21.25L16.3759 18.3136Z" fill="#57A75C"/>
</svg>
