<svg width="68" height="68" viewBox="0 0 68 68" fill="none" xmlns="http://www.w3.org/2000/svg">
<path d="M63.7498 63.75H4.24984C2.68442 63.75 1.4165 62.4821 1.4165 60.9167V15.5833C1.4165 14.0179 2.68442 12.75 4.24984 12.75H63.7498C65.3153 12.75 66.5832 14.0179 66.5832 15.5833V60.9167C66.5832 62.4821 65.3153 63.75 63.7498 63.75Z" fill="#444444"/>
<path d="M56.6665 56.6666H11.3332C10.5512 56.6666 9.9165 56.0319 9.9165 55.2499V21.2499C9.9165 20.4679 10.5512 19.8333 11.3332 19.8333H56.6665C57.4485 19.8333 58.0832 20.4679 58.0832 21.2499V55.2499C58.0832 56.0319 57.4485 56.6666 56.6665 56.6666Z" fill="#848484"/>
<path d="M60.3287 4.51768C59.9562 4.24993 59.4816 4.1791 59.0523 4.32218L34 12.6734V55.2499C34.1502 55.2499 34.3017 55.2259 34.4477 55.1777L59.9477 46.6777C60.5271 46.4836 60.9167 45.9439 60.9167 45.3333V5.6666C60.9167 5.21185 60.6985 4.78402 60.3287 4.51768Z" fill="#C6C6C6"/>
<path d="M33.9997 12.6734L8.94734 4.32218C8.51526 4.1791 8.04067 4.24993 7.67092 4.51768C7.30117 4.78402 7.08301 5.21185 7.08301 5.6666V45.3333C7.08301 45.9439 7.47259 46.4836 8.05201 46.6777L33.552 55.1777C33.6979 55.2259 33.8495 55.2499 33.9997 55.2499V12.6734Z" fill="#E6E6E6"/>
</svg>
