<?xml version="1.0"?>
<svg xmlns="http://www.w3.org/2000/svg" xmlns:xlink="http://www.w3.org/1999/xlink" xmlns:svgjs="http://svgjs.com/svgjs" version="1.1" width="512" height="512" x="0" y="0" viewBox="0 0 512.029 512.029" style="enable-background:new 0 0 512 512" xml:space="preserve" class=""><g><g xmlns="http://www.w3.org/2000/svg"><path d="m468.722 374.621c-5.999-7.485-17.406-7.49-23.409 0-8.906 11.107-20.739 27.868-28.795 41.67-8.12-13.912-19.99-30.688-28.795-41.67-5.999-7.485-17.406-7.49-23.409 0-.427.532-10.563 13.213-20.836 28.867-20.131 30.676-22.459 44.662-22.459 52.514 0 30.327 24.673 55 55 55 16.01 0 30.44-6.88 40.5-17.834 10.06 10.954 24.49 17.834 40.5 17.834 30.327 0 55-24.673 55-55 0-7.852-2.328-21.838-22.459-52.514-10.275-15.654-20.412-28.335-20.838-28.867z" fill="#24213f" data-original="#000000" style="" class=""/><path d="m78.223 199.009c11.815.052 39.448-.007 105.794-.007 8.284 0 15-6.716 15-15 0-67.452.024-94.637.002-105.789z" fill="#24213f" data-original="#000000" style="" class=""/><path d="m72.017 57.002c-8.284 0-15 6.716-15 15v105.787l120.792-120.792c-2.741-.001-.802.005-105.792.005z" fill="#24213f" data-original="#000000" style="" class=""/><path d="m16.017 143.002h11v-71c0-24.813 20.187-45 45-45h71v-11c0-8.284-6.716-15-15-15h-112c-8.284 0-15 6.716-15 15v112c0 8.284 6.716 15 15 15z" fill="#24213f" data-original="#000000" style="" class=""/><path d="m147.804 287.002-72.786 72.786c-30.52 30.52-50.688 70.531-57.158 113.158l-13.449 13.449c-9.478 9.478-2.635 25.606 10.606 25.606 3.839 0 7.678-1.465 10.606-4.394l13.45-13.45c42.627-6.47 82.638-26.638 113.157-57.158 75.497-75.498 121.837-121.837 149.999-149.999h-154.425z" fill="#24213f" data-original="#000000" style="" class=""/><path d="m496.025 15.993c-21.287-21.286-55.925-21.288-77.213 0l-94.796 94.796-9.393-9.394c-5.857-5.857-15.355-5.857-21.213 0s-5.858 15.355 0 21.213l96 96c5.859 5.858 15.355 5.857 21.213 0s5.858-15.355 0-21.213l-9.394-9.394 94.796-94.796c21.337-21.334 21.34-55.874 0-77.212z" fill="#24213f" data-original="#000000" style="" class=""/><path d="m177.804 257.002h154.426c1.127-1.127 25.405-25.404 26.547-26.546l-77.213-77.213z" fill="#24213f" data-original="#000000" style="" class=""/></g></g></svg>
