<svg width="672" height="80" xmlns="http://www.w3.org/2000/svg" viewBox="0 0 672 80">
  <g fill="#FFF" fill-rule="evenodd">
    <path d="M548 40h-8V15h8zM536 40h-8V9h8zM524 40h-8V20h8zM512 40h-8V24h8zM500 40h-8V15h8zM488 40h-8V7h8zM476 40h-8V15h8zM464 40h-8V23h8zM452 40h-8V26h8zM440 40h-8V21h8zM428 40h-8V16h8zM668 40h-8V13h8zM416 40h-8V14h8zM656 40h-8V23h8zM404 40h-8V20h8zM644 40h-8V21h8zM392 40h-8V15h8zM632 40h-8V10h8zM380 40h-8V21h8zM620 40h-8V7h8zM368 40h-8V13h8zM608 40h-8V5h8zM356 40h-8V26h8zM596 40h-8V9h8zM344 40h-8V26h8zM584 40h-8V19h8zM332 40h-8V22h8zM572 40h-8V27h8zM320 40h-8V14h8zM560 40h-8V20h8zM308 40h-8V20h8zM248 40h-8V24h8zM236 40h-8V21h8zM224 40h-8V12h8zM212 40h-8V23h8zM200 40h-8V19h8zM188 40h-8V6h8zM176 40h-8V20h8zM164 40h-8V12h8zM152 40h-8V0h8zM140 40h-8V9h8zM128 40h-8V20h8zM116 40h-8V21h8zM104 40h-8V16h8zM92 40h-8V15h8zM80 40h-8V18h8zM68 40h-8V21h8zM56 40h-8V12h8zM296 40h-8V20h8zM44 40h-8V6h8zM284 40h-8V21h8zM32 40h-8V9h8zM272 40h-8V26h8zM20 40h-8V12h8zM260 40h-8V19h8zM8 40H0V14h8zM548 40h-8v25h8zM536 40h-8v31h8zM524 40h-8v20h8zM512 40h-8v16h8zM500 40h-8v25h8zM488 40h-8v33h8zM476 40h-8v25h8zM464 40h-8v17h8zM452 40h-8v14h8zM440 40h-8v19h8zM428 40h-8v24h8zM668 40h-8v27h8zM416 40h-8v26h8zM656 40h-8v17h8zM404 40h-8v20h8zM644 40h-8v19h8zM392 40h-8v25h8zM632 40h-8v30h8zM380 40h-8v19h8zM620 40h-8v33h8zM368 40h-8v27h8zM608 40h-8v35h8zM356 40h-8v14h8zM596 40h-8v31h8zM344 40h-8v14h8zM584 40h-8v21h8zM332 40h-8v18h8zM572 40h-8v13h8zM320 40h-8v26h8zM560 40h-8v20h8zM308 40h-8v20h8zM248 40h-8v16h8zM236 40h-8v19h8zM224 40h-8v28h8zM212 40h-8v17h8zM200 40h-8v21h8zM188 40h-8v34h8zM176 40h-8v20h8zM164 40h-8v28h8zM152 40h-8v40h8zM140 40h-8v31h8zM128 40h-8v20h8zM116 40h-8v19h8zM104 40h-8v24h8zM92 40h-8v25h8zM80 40h-8v22h8zM68 40h-8v19h8zM56 40h-8v28h8zM296 40h-8v20h8zM44 40h-8v34h8zM284 40h-8v19h8zM32 40h-8v31h8zM272 40h-8v14h8zM20 40h-8v28h8zM260 40h-8v21h8zM8 40H0v26h8z"/>
  </g>
</svg>