<svg width="124" height="43" viewBox="0 0 124 43" fill="none" xmlns="http://www.w3.org/2000/svg">
<path fill-rule="evenodd" clip-rule="evenodd" d="M0 6C0 2.68629 2.68629 0 6 0H118C121.314 0 124 2.68629 124 6V37C124 40.3137 121.314 43 118 43H6C2.68629 43 0 40.3137 0 37L0 6Z" fill="#E74948"/>
<path d="M50.8039 14.8H46.2119V26H48.3559V22.704H50.8039C53.6199 22.704 55.2359 21.216 55.2359 18.656C55.2359 16.192 53.6199 14.8 50.8039 14.8ZM50.6919 20.816H48.3559V16.672H50.6919C52.2919 16.672 53.2039 17.344 53.2039 18.72C53.2039 20.128 52.2919 20.816 50.6919 20.816ZM59.0088 19.088V17.44H56.9288V26H59.0088V21.872C59.0088 20.32 60.1128 19.264 61.9208 19.376V17.36C60.5928 17.376 59.5848 17.968 59.0088 19.088ZM66.9499 17.376C64.3899 17.376 62.5979 19.136 62.5979 21.744C62.5979 24.32 64.3419 26.08 66.9979 26.08C68.5019 26.08 69.7499 25.536 70.5979 24.608L69.4779 23.44C68.8699 24.064 68.0539 24.4 67.1739 24.4C65.9259 24.4 64.9979 23.664 64.7259 22.448H71.0459C71.2539 19.344 69.9579 17.376 66.9499 17.376ZM64.6779 21.056C64.8699 19.792 65.7339 18.992 66.9659 18.992C68.2619 18.992 69.1099 19.792 69.1579 21.056H64.6779ZM71.2418 17.456L74.5378 26H76.6818L79.9458 17.44H77.8498L75.6578 23.952L73.4178 17.44L71.2418 17.456ZM82.1876 13.84C81.5316 13.84 81.0676 14.32 81.0676 14.992C81.0676 15.664 81.5316 16.144 82.1876 16.144C82.8436 16.144 83.3076 15.664 83.3076 14.992C83.3076 14.32 82.8436 13.84 82.1876 13.84ZM81.1476 17.44V26H83.2276V17.44H81.1476ZM89.3718 17.376C86.8118 17.376 85.0198 19.136 85.0198 21.744C85.0198 24.32 86.7638 26.08 89.4198 26.08C90.9238 26.08 92.1718 25.536 93.0198 24.608L91.8998 23.44C91.2918 24.064 90.4758 24.4 89.5958 24.4C88.3478 24.4 87.4198 23.664 87.1478 22.448H93.4678C93.6758 19.344 92.3798 17.376 89.3718 17.376ZM87.0998 21.056C87.2918 19.792 88.1558 18.992 89.3878 18.992C90.6838 18.992 91.5318 19.792 91.5798 21.056H87.0998ZM93.6637 17.456L96.7997 26H98.9277L100.96 19.968L103.008 26H105.136L108.24 17.44H106.144L104.096 23.904L102.032 17.44H99.9357L97.9037 23.904L95.8077 17.44L93.6637 17.456Z" fill="white"/>
<path d="M23.4997 28.7376C16.0954 28.7376 11.279 21.647 11.0779 21.2976C11.0268 21.2079 11 21.1065 11 21.0033C11 20.9001 11.0268 20.7987 11.0779 20.709C11.2767 20.3536 16.0597 13.2625 23.4997 13.2625C30.9021 13.2625 35.7191 20.3525 35.9203 20.7024C35.9725 20.7929 36 20.8956 36 21C36 21.1045 35.9725 21.2071 35.9203 21.2976C35.7149 21.6488 30.8629 28.7376 23.4997 28.7376Z" fill="white"/>
<path d="M23.4982 26.9527C26.7861 26.9527 29.4514 24.2874 29.4514 20.9996C29.4514 17.7117 26.7861 15.0464 23.4982 15.0464C20.2104 15.0464 17.545 17.7117 17.545 20.9996C17.545 24.2874 20.2104 26.9527 23.4982 26.9527Z" fill="#43A6DD"/>
<path d="M23.4988 24.5706C25.4711 24.5706 27.07 22.9717 27.07 20.9994C27.07 19.0271 25.4711 17.4282 23.4988 17.4282C21.5265 17.4282 19.9276 19.0271 19.9276 20.9994C19.9276 22.9717 21.5265 24.5706 23.4988 24.5706Z" fill="#444444"/>
<path d="M20.8201 20.4042C21.6419 20.4042 22.3081 19.738 22.3081 18.9162C22.3081 18.0944 21.6419 17.4282 20.8201 17.4282C19.9984 17.4282 19.3322 18.0944 19.3322 18.9162C19.3322 19.738 19.9984 20.4042 20.8201 20.4042Z" fill="white"/>
</svg>
