<svg width="42" height="42" viewBox="0 0 42 42" fill="none" xmlns="http://www.w3.org/2000/svg">
<path d="M42 19.8484C41.9997 17.5906 39.6775 15.6798 35.2843 14.3225C32.9714 13.6079 30.2211 13.0853 27.2344 12.7796V9.84087H30.9258C31.6054 9.84087 32.1562 9.28972 32.1562 8.6104V3.68852C32.1562 3.00888 31.6054 2.45805 30.9258 2.45805H27.2344V1.23047C27.2344 0.550827 26.6835 0 26.0039 0C25.3243 0 24.7734 0.550827 24.7734 1.23047V2.45805H17.2266V1.23047C17.2266 0.550827 16.6757 0 15.9961 0C15.3165 0 14.7656 0.550827 14.7656 1.23047V2.45805H11.0742C10.3946 2.45805 9.84375 3.00888 9.84375 3.68852V8.6104C9.84375 9.28972 10.3946 9.84087 11.0742 9.84087H14.7656V12.7671C6.74323 13.5701 0.000320435 15.9685 0 19.8484V19.8487V34.6143C0 38.6678 7.35974 41.1044 15.8493 41.7936C15.8721 41.7965 15.8955 41.7978 15.9185 41.7994C17.5585 41.9305 19.2395 41.9971 20.9176 41.9971H20.918H20.9183C22.6333 41.9971 24.3191 41.9298 25.9456 41.8004C25.9651 41.801 25.9844 41.8033 26.0039 41.8033C26.0952 41.8033 26.184 41.7924 26.2699 41.7735C28.8625 41.5527 31.2972 41.1707 33.4505 40.6446C33.6161 40.6359 33.7725 40.5949 33.9145 40.5276C34.3858 40.4055 34.8434 40.2764 35.2843 40.1402C39.6778 38.7828 42 36.8721 42 34.6143V19.8487C42 19.8484 42 19.8484 42 19.8484ZM39.5391 27.2315C39.5391 28.1393 37.8574 29.3909 34.6172 30.4057V25.5716C34.8431 25.5076 35.0661 25.4422 35.2843 25.3746C37.0384 24.8327 38.4611 24.2024 39.5391 23.4971V27.2315ZM32.1562 38.4201C30.639 38.7575 28.9836 39.0228 27.2344 39.2097V34.3137C28.9695 34.1388 30.6271 33.8885 32.1562 33.5732V38.4201ZM14.7656 39.225C13.0148 39.0417 11.3588 38.7796 9.84375 38.4441V33.5732C11.3729 33.8885 13.0305 34.1388 14.7656 34.3137V39.225ZM19.6875 39.5237C18.8553 39.5077 18.0337 39.4753 17.2266 39.4266V32.1534H19.6875V39.5237ZM22.1484 32.1534H24.7734V39.4173C23.9131 39.4711 23.0364 39.5067 22.1484 39.5237V32.1534ZM27.2344 31.84V30.9229C27.2344 30.2433 26.6835 29.6924 26.0039 29.6924H15.9961C15.3165 29.6924 14.7656 30.2433 14.7656 30.9229V31.84C12.9254 31.6468 11.2825 31.3763 9.84375 31.0565V26.1962C13.1907 26.8822 17.0628 27.2315 20.918 27.2315C24.9385 27.2315 28.7987 26.8643 32.1101 26.1805C32.1255 26.1801 32.1409 26.1795 32.1562 26.1785V31.0568C30.7175 31.3763 29.0746 31.6468 27.2344 31.84ZM2.46094 23.5199C3.72505 24.3517 5.4147 25.0471 7.38281 25.6024V30.4057C4.14258 29.3909 2.46094 28.1393 2.46094 27.2315V23.5199ZM31.9249 23.7054C28.7157 24.3976 24.9087 24.7706 20.918 24.7706C17.0538 24.7706 13.3733 24.4197 10.2533 23.7666C9.80113 23.6128 9.41885 23.4657 9.09618 23.328C9.09361 23.327 9.09137 23.326 9.08913 23.3251C7.96472 22.8444 7.5629 22.4762 7.43056 22.3176C7.64236 22.0876 8.48607 21.3973 11.3492 20.7574C13.9716 20.1714 17.3698 19.8487 20.918 19.8487C24.4834 19.8487 27.9076 20.1739 30.5595 20.7645C33.4579 21.4098 34.3166 22.1055 34.5339 22.3394C34.366 22.5374 33.7815 23.054 31.9249 23.7054ZM12.3047 4.91899H29.6953V7.37993H12.3047V4.91899ZM17.2266 9.84087H24.7734V12.5806C23.5138 12.505 22.2247 12.4659 20.918 12.4659C19.6833 12.4659 18.4471 12.5021 17.2266 12.5732V9.84087ZM7.36391 16.6725C9.80754 15.9089 12.8087 15.3783 16.0897 15.1159C16.105 15.1146 16.1207 15.1136 16.1361 15.112C17.6781 14.9899 19.2815 14.9268 20.918 14.9268C26.067 14.9268 30.911 15.5472 34.5579 16.6738C37.9987 17.737 39.5391 19.0345 39.5391 19.8487C39.5391 20.4325 38.7469 21.265 37.0297 22.0811C37.0259 22.0472 37.0211 22.0132 37.0156 21.9789C36.7622 20.437 34.9636 19.2857 31.5167 18.4599C28.6308 17.7684 24.8667 17.3877 20.918 17.3877C16.9872 17.3877 13.2496 17.7659 10.3943 18.4529C6.98355 19.2732 5.20322 20.4191 4.95071 21.9562C4.94334 21.9998 4.9379 22.043 4.93341 22.086C3.24152 21.2704 2.46094 20.4357 2.46094 19.8487C2.46094 19.0303 3.97691 17.7312 7.36391 16.6725ZM2.46094 34.6143V30.9001C3.12039 31.3347 3.94551 31.7637 4.97443 32.1729C5.7047 32.4632 6.51219 32.7324 7.38281 32.9775V37.7959C7.37672 37.794 7.37 37.7921 7.36391 37.7901C3.97691 36.7317 2.46094 35.4324 2.46094 34.6143ZM34.6172 37.7703V32.9778C35.4878 32.7324 36.2953 32.4635 37.0256 32.1729C38.0545 31.764 38.8799 31.3347 39.5391 30.9001V34.6143C39.5391 35.4237 38.016 36.7106 34.6172 37.7703Z" fill="#EC2F3C"/>
</svg>
