<svg width="39" height="52" viewBox="0 0 39 52" fill="none" xmlns="http://www.w3.org/2000/svg">
<path d="M19.3838 2C9.79832 2 2 9.79832 2 19.3837C2 31.2795 17.5568 48.7431 18.2191 49.4808C18.8413 50.1737 19.9275 50.1725 20.5485 49.4808C21.2108 48.7431 36.7676 31.2795 36.7676 19.3837C36.7674 9.79832 28.9692 2 19.3838 2ZM19.3838 28.1299C14.5611 28.1299 10.6377 24.2064 10.6377 19.3837C10.6377 14.561 14.5612 10.6376 19.3838 10.6376C24.2064 10.6376 28.1298 14.5611 28.1298 19.3838C28.1298 24.2065 24.2064 28.1299 19.3838 28.1299Z" stroke="#EC2F3C" stroke-width="3"/>
</svg>
