<svg width="123" height="123" viewBox="0 0 123 123" fill="none" xmlns="http://www.w3.org/2000/svg">
<path d="M110.157 77.7199C109.713 77.7199 109.265 77.5815 108.883 77.2944C107.946 76.59 107.757 75.2594 108.461 74.322L112.181 69.3705C112.885 68.4331 114.215 68.244 115.153 68.9479C116.091 69.6523 116.28 70.9829 115.576 71.9203L111.856 76.8718C111.438 77.4275 110.801 77.7199 110.157 77.7199Z" fill="#9FDEF7"/>
<path d="M101.631 89.0678C101.187 89.0678 100.739 88.9295 100.357 88.6424C99.4197 87.938 99.2309 86.6074 99.9348 85.67L103.655 80.7185C104.359 79.7811 105.689 79.5918 106.627 80.2959C107.565 81 107.753 82.3309 107.05 83.2683L103.33 88.2198C102.913 88.7752 102.275 89.0678 101.631 89.0678Z" fill="#9FDEF7"/>
<path d="M93.1052 100.416C92.6613 100.416 92.214 100.277 91.8317 99.99C90.8941 99.2856 90.7053 97.9549 91.4092 97.0175L95.1292 92.0656C95.8336 91.1282 97.1642 90.9391 98.1016 91.643C99.0393 92.3473 99.2281 93.678 98.5242 94.6154L94.8042 99.5674C94.3871 100.123 93.75 100.416 93.1052 100.416Z" fill="#9FDEF7"/>
<path d="M84.5793 111.764C84.1354 111.764 83.6881 111.625 83.3059 111.338C82.3682 110.634 82.1794 109.303 82.8833 108.366L86.6038 103.414C87.3082 102.477 88.6393 102.288 89.5762 102.992C90.5139 103.696 90.7027 105.027 89.9988 105.965L86.2778 110.916C85.861 111.472 85.2239 111.764 84.5793 111.764Z" fill="#9FDEF7"/>
<path d="M93.8391 77.7197C93.3951 77.7197 92.9476 77.5811 92.5654 77.294C91.628 76.5899 91.4391 75.259 92.1433 74.3216L95.8638 69.3701C96.5681 68.4332 97.8988 68.2441 98.8364 68.9483C99.7738 69.6524 99.9627 70.9833 99.2585 71.9207L95.538 76.8722C95.1207 77.4274 94.4839 77.7197 93.8391 77.7197Z" fill="#9FDEF7"/>
<path d="M85.3134 89.0679C84.8695 89.0679 84.4222 88.9292 84.0397 88.6422C83.1023 87.938 82.9135 86.6071 83.6176 85.6697L87.3381 80.7182C88.0425 79.7813 89.3732 79.5923 90.3108 80.2964C91.2482 81.0005 91.437 82.3314 90.7329 83.2688L87.0124 88.2203C86.5951 88.7753 85.9582 89.0679 85.3134 89.0679Z" fill="#9FDEF7"/>
<path d="M76.7878 100.416C76.3438 100.416 75.8965 100.277 75.5141 99.9898C74.5767 99.2857 74.3879 97.955 75.092 97.0174L78.8125 92.0654C79.5169 91.1285 80.848 90.9394 81.7849 91.6436C82.7226 92.3477 82.9114 93.6784 82.2075 94.616L78.487 99.568C78.0697 100.123 77.4328 100.416 76.7878 100.416Z" fill="#9FDEF7"/>
<path d="M68.2622 111.764C67.8183 111.764 67.3709 111.626 66.9887 111.339C66.0511 110.634 65.8623 109.303 66.5661 108.366L70.2862 103.414C70.9905 102.476 72.3212 102.288 73.2586 102.992C74.1962 103.696 74.3851 105.027 73.6812 105.964L69.9611 110.916C69.5441 111.472 68.907 111.764 68.2622 111.764Z" fill="#9FDEF7"/>
<path d="M77.5225 77.7199C77.0785 77.7199 76.6312 77.5815 76.2487 77.2944C75.3114 76.59 75.1225 75.2594 75.8264 74.322L79.5464 69.3705C80.2508 68.4331 81.5812 68.244 82.5189 68.9479C83.4565 69.6523 83.6453 70.9829 82.9414 71.9203L79.2214 76.8718C78.8041 77.4275 78.1673 77.7199 77.5225 77.7199Z" fill="#9FDEF7"/>
<path d="M68.9966 89.068C68.5526 89.068 68.1053 88.9297 67.7229 88.6426C66.7855 87.9382 66.5966 86.6075 67.3005 85.6702L71.0203 80.7187C71.7247 79.781 73.0554 79.592 73.9928 80.2961C74.9304 81.0005 75.1192 82.3311 74.4153 83.2685L70.6953 88.22C70.2785 88.7754 69.6416 89.068 68.9966 89.068Z" fill="#9FDEF7"/>
<path d="M60.4707 100.416C60.0267 100.416 59.5794 100.277 59.1969 99.9898C58.2595 99.2857 58.0707 97.955 58.7748 97.0174L62.4954 92.0654C63.1997 91.1285 64.5309 90.9392 65.468 91.6435C66.4054 92.3477 66.5943 93.6783 65.8901 94.616L62.1696 99.5679C61.7523 100.123 61.1155 100.416 60.4707 100.416Z" fill="#9FDEF7"/>
<path d="M51.945 111.764C51.5011 111.764 51.0538 111.625 50.6713 111.338C49.7339 110.634 49.5451 109.303 50.2492 108.366L53.9697 103.414C54.6741 102.477 56.0052 102.288 56.9424 102.992C57.8798 103.696 58.0686 105.027 57.3645 105.965L53.644 110.916C53.2267 111.472 52.5898 111.764 51.945 111.764Z" fill="#9FDEF7"/>
<path d="M52.6797 89.068C52.2357 89.068 51.7884 88.9297 51.4062 88.6426C50.4686 87.9382 50.2797 86.6075 50.9836 85.6702L54.7037 80.7187C55.408 79.781 56.7387 79.592 57.6761 80.2961C58.6137 81.0005 58.8026 82.3311 58.0987 83.2685L54.3786 88.22C53.9613 88.7754 53.3242 89.068 52.6797 89.068Z" fill="#9FDEF7"/>
<path d="M44.154 100.416C43.7101 100.416 43.2628 100.277 42.8806 99.99C41.9429 99.2856 41.7541 97.9549 42.458 97.0175L46.178 92.0656C46.8824 91.1282 48.2131 90.9391 49.1505 91.643C50.0878 92.3473 50.2769 93.678 49.573 94.6154L45.853 99.5674C45.4357 100.123 44.7986 100.416 44.154 100.416Z" fill="#9FDEF7"/>
<path d="M35.6279 111.764C35.1839 111.764 34.7366 111.625 34.3542 111.338C33.4168 110.634 33.2279 109.303 33.9321 108.366L37.6526 103.414C38.357 102.477 39.6881 102.288 40.625 102.992C41.5626 103.696 41.7515 105.027 41.0476 105.965L37.3268 110.916C36.9095 111.472 36.2727 111.764 35.6279 111.764Z" fill="#9FDEF7"/>
<path d="M36.3622 89.0679C35.9183 89.0679 35.4709 88.9292 35.0885 88.6422C34.1511 87.938 33.9623 86.6071 34.6666 85.6697L38.3872 80.7182C39.0913 79.7809 40.4222 79.592 41.3596 80.2964C42.297 81.0005 42.4858 82.3314 41.7814 83.2688L38.0609 88.2203C37.6441 88.7753 37.007 89.0679 36.3622 89.0679Z" fill="#9FDEF7"/>
<path d="M27.8366 100.416C27.3927 100.416 26.9454 100.277 26.5629 99.9898C25.6255 99.2857 25.4367 97.955 26.1408 97.0174L29.8613 92.0654C30.5657 91.1285 31.8968 90.9392 32.834 91.6435C33.7714 92.3477 33.9602 93.6783 33.2561 94.616L29.5356 99.5679C29.1185 100.123 28.4814 100.416 27.8366 100.416Z" fill="#9FDEF7"/>
<path d="M19.311 111.764C18.8671 111.764 18.4198 111.626 18.0375 111.339C17.0999 110.634 16.9111 109.303 17.615 108.366L21.335 103.414C22.0394 102.476 23.37 102.288 24.3074 102.992C25.2451 103.696 25.4339 105.027 24.73 105.964L21.01 110.916C20.5929 111.472 19.9558 111.764 19.311 111.764Z" fill="#9FDEF7"/>
<path d="M20.0454 89.068C19.6015 89.068 19.1541 88.9297 18.7719 88.6426C17.8343 87.9382 17.6455 86.6075 18.3493 85.6702L22.0694 80.7187C22.7738 79.781 24.1042 79.592 25.0418 80.2961C25.9794 81.0002 26.1683 82.3311 25.4644 83.2685L21.7443 88.22C21.3271 88.7754 20.6902 89.068 20.0454 89.068Z" fill="#9FDEF7"/>
<path d="M11.5193 100.416C11.0753 100.416 10.628 100.277 10.2455 99.9898C9.30813 99.2857 9.1193 97.955 9.82343 97.0174L13.5439 92.0654C14.2483 91.1285 15.5795 90.9392 16.5166 91.6435C17.454 92.3477 17.6428 93.6783 16.9387 94.616L13.2182 99.5679C12.8009 100.123 12.164 100.416 11.5193 100.416Z" fill="#9FDEF7"/>
<path d="M2.99361 111.764C2.54966 111.764 2.10234 111.625 1.71989 111.338C0.782492 110.634 0.593668 109.303 1.2978 108.366L5.01831 103.414C5.72268 102.477 7.05382 102.288 7.99098 102.992C8.92814 103.696 9.1172 105.027 8.41307 105.965L4.69256 110.916C4.27551 111.472 3.63864 111.764 2.99361 111.764Z" fill="#9FDEF7"/>
<path d="M101.107 45.1254H74.3525C69.1829 45.1254 64.9917 40.9338 64.9917 35.7644C64.9917 30.595 69.1829 26.4039 74.3525 26.4039C75.1659 26.4039 75.9544 26.5082 76.7068 26.7025C77.6949 25.2767 79.167 24.213 80.8859 23.7459C78.0482 16.4272 70.9443 11.2357 62.6235 11.2357C53.2964 11.2357 45.4974 17.7576 43.5241 26.488C42.3544 26.0976 41.103 25.8833 39.8017 25.8833C35.7945 25.8833 32.2576 27.8898 30.1368 30.9513C28.9529 30.6455 27.7116 30.4814 26.4319 30.4814C18.2956 30.4814 11.6995 37.0768 11.6995 45.2133C11.6995 47.5741 12.258 49.804 13.2456 51.7818C14.9758 46.4282 19.9979 42.5549 25.9281 42.5549C32.2753 42.5549 37.5826 46.9928 38.925 52.9338C39.7217 52.6683 40.5728 52.5222 41.459 52.5222C44.1852 52.5222 46.5924 53.8877 48.0357 55.9711C48.8412 55.7632 49.6861 55.6513 50.5567 55.6513C53.9621 55.6513 56.9686 57.3502 58.7807 59.9455H75.0965H82.7922H86.5514C94.5935 59.9455 101.113 53.4265 101.113 45.3844C101.114 45.2969 101.109 45.2114 101.107 45.1254Z" fill="#9FDEF7"/>
<path d="M113.434 26.2586C112.436 26.2586 111.474 26.4119 110.57 26.6953C110.575 26.5507 110.581 26.4056 110.581 26.2586C110.581 19.1532 104.82 13.3923 97.7142 13.3923C91.5867 13.3923 86.4635 17.6764 85.1677 23.4118C84.3987 23.1557 83.5773 23.0147 82.7221 23.0147C80.0896 23.0147 77.7665 24.3329 76.3734 26.3441C75.5953 26.1433 74.7804 26.0354 73.9391 26.0354C68.5943 26.0354 64.2612 30.3685 64.2612 35.713C64.2612 41.0575 68.5941 45.3911 73.9391 45.3911H113.434C118.717 45.3911 123 41.1085 123 35.8255C123 30.5417 118.717 26.2586 113.434 26.2586Z" fill="#E4F2F9"/>
<path d="M42.1353 26.1176C41.381 25.9649 40.6009 25.8829 39.8017 25.8829C35.7945 25.8829 32.2576 27.8894 30.1368 30.9509C28.9529 30.6451 27.7116 30.481 26.4319 30.481C18.2956 30.481 11.6995 37.0764 11.6995 45.213C11.6995 47.5737 12.258 49.8036 13.2456 51.7815C14.9758 46.4278 19.9979 42.5545 25.9281 42.5545C32.2753 42.5545 37.5826 46.9924 38.9251 52.9334C39.7217 52.6679 40.5728 52.5219 41.459 52.5219C44.1852 52.5219 46.5924 53.8874 48.0357 55.9707C48.8412 55.7629 49.6861 55.6509 50.5567 55.6509C53.9621 55.6509 56.9686 57.3499 58.7807 59.9451H69.8478C54.5583 55.9154 43.1097 42.4282 42.1353 26.1176Z" fill="#83D4ED"/>
<path d="M84.4278 23.2097C83.8788 23.0853 83.3095 23.0144 82.7228 23.0144C80.0903 23.0144 77.7672 24.3326 76.3741 26.3438C75.596 26.143 74.7811 26.0351 73.9398 26.0351C68.5951 26.0351 64.262 30.368 64.262 35.7127C64.262 41.0575 68.5948 45.3908 73.9398 45.3908H98.5355C90.2193 41.4613 84.4592 33.0106 84.4278 23.2097Z" fill="#D7EDF9"/>
<path d="M50.8224 55.3855C49.9518 55.3855 49.1069 55.4974 48.3014 55.7052C46.8581 53.6221 44.4509 52.2564 41.7247 52.2564C40.8385 52.2564 39.9873 52.4027 39.1907 52.6679C37.8483 46.7264 32.5408 42.2891 26.1938 42.2891C18.8322 42.2891 12.8648 48.2563 12.8648 55.6173C12.8648 55.7691 12.8708 55.9195 12.8763 56.0696C11.9399 55.7763 10.9432 55.6173 9.90945 55.6173C4.43666 55.617 0 60.0539 0 65.5272C0 71 4.43666 75.4362 9.90945 75.4362H36.1126H43.2773H50.8224C56.3593 75.4362 60.8476 70.9476 60.8476 65.4112C60.8476 59.874 56.3596 55.3855 50.8224 55.3855Z" fill="#E4F2F9"/>
<path d="M16.4472 46.5298C14.2262 48.911 12.8651 52.1042 12.8651 55.6169C12.8651 55.7687 12.8711 55.9191 12.8763 56.0693C11.9399 55.7759 10.9432 55.6169 9.90945 55.6169C4.43666 55.6169 0 60.0538 0 65.5271C0 70.9999 4.43666 75.436 9.90945 75.436H36.1126H36.9988C25.1199 71.1548 16.5993 59.8484 16.4472 46.5298Z" fill="#D7EDF9"/>
</svg>
