<svg width="120" height="120" viewBox="0 0 120 120" fill="none" xmlns="http://www.w3.org/2000/svg">
<path d="M59.9998 99.1303C81.6109 99.1303 99.1302 81.611 99.1302 59.9999C99.1302 38.3888 81.6109 20.8695 59.9998 20.8695C38.3887 20.8695 20.8694 38.3888 20.8694 59.9999C20.8694 81.611 38.3887 99.1303 59.9998 99.1303Z" fill="#FFC107"/>
<path d="M59.9999 15.6522C61.4406 15.6522 62.6087 14.4841 62.6087 13.0434V2.60878C62.6087 1.16804 61.4406 0 59.9999 0C58.5592 0 57.3911 1.16804 57.3911 2.60878V13.0436C57.3914 14.4841 58.5592 15.6522 59.9999 15.6522Z" fill="#FFD54F"/>
<path d="M59.9999 104.348C58.5592 104.348 57.3911 105.516 57.3911 106.957V117.391C57.3911 118.832 58.5592 120 59.9999 120C61.4406 120 62.6087 118.832 62.6087 117.391V106.956C62.6087 105.516 61.4406 104.348 59.9999 104.348Z" fill="#FFD54F"/>
<path d="M117.391 57.3914H106.956C105.516 57.3914 104.348 58.5594 104.348 60.0001C104.348 61.4409 105.516 62.6089 106.956 62.6089H117.391C118.832 62.6089 120 61.4409 120 60.0001C120 58.5592 118.832 57.3914 117.391 57.3914Z" fill="#FFD54F"/>
<path d="M15.6522 59.9999C15.6522 58.5592 14.4841 57.3911 13.0434 57.3911H2.60878C1.16804 57.3914 0 58.5592 0 59.9999C0 61.4406 1.16804 62.6087 2.60878 62.6087H13.0436C14.4841 62.6087 15.6522 61.4406 15.6522 59.9999Z" fill="#FFD54F"/>
<path d="M34.2626 20.64C34.7295 21.4488 35.593 21.9462 36.527 21.9443C36.9851 21.946 37.4356 21.8254 37.8313 21.5948C39.0791 20.8743 39.5063 19.279 38.7861 18.0312L33.5688 8.99481C32.8402 7.75193 31.242 7.33495 29.9991 8.06351C28.7677 8.78522 28.3451 10.3627 29.0507 11.6033L34.2626 20.64Z" fill="#FFD54F"/>
<path d="M85.7374 99.3599C85.0086 98.117 83.4103 97.7003 82.1675 98.4291C80.9366 99.1511 80.514 100.728 81.219 101.969L86.4363 111.005C86.9032 111.814 87.7668 112.311 88.7008 112.309C89.1588 112.311 89.6093 112.191 90.005 111.96C91.2528 111.239 91.68 109.644 90.9598 108.396L85.7374 99.3599Z" fill="#FFD54F"/>
<path d="M100.664 39.1304C101.122 39.1321 101.573 39.0115 101.968 38.7809L111.005 33.5636C112.281 32.8957 112.775 31.3195 112.107 30.0428C111.439 28.7662 109.863 28.2727 108.586 28.9406C108.521 28.9746 108.458 29.0113 108.396 29.0506L99.3596 34.2679C98.1118 34.9884 97.6846 36.584 98.4048 37.8315C98.8707 38.6386 99.7318 39.1358 100.664 39.1358V39.1304H100.664Z" fill="#FFD54F"/>
<path d="M18.0313 81.2191L8.99487 86.4364C7.7471 87.1569 7.31985 88.7522 8.04009 89.9999C8.50599 90.807 9.3671 91.3042 10.2991 91.3042C10.7572 91.3059 11.2077 91.1853 11.6034 90.9547L20.6398 85.7374C21.9165 85.0695 22.41 83.4933 21.7421 82.2167C21.0742 80.94 19.498 80.4465 18.2213 81.1144C18.1563 81.1484 18.0929 81.1851 18.0311 81.2245L18.0313 81.2191Z" fill="#FFD54F"/>
<path d="M8.99488 33.5634L18.0313 38.7807C18.4258 39.0103 18.8741 39.1311 19.3304 39.1302C20.7712 39.1302 21.939 37.9621 21.939 36.5214C21.939 35.5896 21.4418 34.7285 20.6347 34.2623L11.5983 29.045C10.3823 28.2722 8.77013 28.6312 7.9973 29.847C7.22447 31.0627 7.5835 32.6751 8.79923 33.4479C8.8611 33.4873 8.92445 33.524 8.9895 33.558L8.99488 33.5634Z" fill="#FFD54F"/>
<path d="M111.005 86.4364L101.969 81.2191C100.753 80.4463 99.1405 80.8053 98.3677 82.021C97.5948 83.2368 97.9539 84.8492 99.1696 85.622C99.2315 85.6614 99.2951 85.6981 99.3599 85.7321L108.396 90.9494C108.792 91.18 109.242 91.3006 109.701 91.2988C111.141 91.2988 112.309 90.1308 112.309 88.6901C112.309 87.758 111.812 86.8969 111.005 86.431V86.4364H111.005Z" fill="#FFD54F"/>
<path d="M82.1739 21.5948C82.5699 21.8254 83.0201 21.946 83.4782 21.9443C84.4119 21.9462 85.2755 21.4485 85.7426 20.64L90.9599 11.6036C91.6718 10.3511 91.2336 8.75853 89.9812 8.0466C88.7405 7.34152 87.1635 7.76389 86.4416 8.99503L81.2243 18.0315C80.503 19.2775 80.9281 20.8726 82.1739 21.5948Z" fill="#FFD54F"/>
<path d="M37.8261 98.4052C36.5783 97.685 34.983 98.1122 34.2625 99.36L29.0452 108.396C28.325 109.644 28.7522 111.239 30 111.96C30.396 112.191 30.8462 112.311 31.3043 112.309C32.238 112.311 33.1018 111.814 33.5687 111.005L38.786 101.969C39.505 100.72 39.0761 99.1252 37.8276 98.4062C37.8271 98.4057 37.8266 98.4054 37.8261 98.4052Z" fill="#FFD54F"/>
</svg>
