<svg width="44" height="44" viewBox="0 0 44 44" fill="none" xmlns="http://www.w3.org/2000/svg">
<path d="M22 1C10.3933 1 1 10.3923 1 22C1 33.6067 10.3923 43 22 43C33.6066 43 43 33.6077 43 22C43 10.3934 33.6077 1 22 1ZM22 40.2C11.9645 40.2 3.79997 32.0355 3.79997 22C3.79997 11.9645 11.9645 3.79997 22 3.79997C32.0355 3.79997 40.2 11.9645 40.2 22C40.2 32.0355 32.0355 40.2 22 40.2Z" fill="#EC2F3C" stroke="#EC2F3C" stroke-width="0.5"/>
<path d="M26.3295 21.5806H21.7529V13.7831C21.7529 13.0099 21.1261 12.3831 20.3529 12.3831C19.5797 12.3831 18.9529 13.0099 18.9529 13.7831V22.9806C18.9529 23.7537 19.5797 24.3806 20.3529 24.3806H26.3294C27.1025 24.3806 27.7294 23.7538 27.7294 22.9806C27.7294 22.2074 27.1026 21.5806 26.3295 21.5806Z" fill="#EC2F3C" stroke="#EC2F3C" stroke-width="0.5"/>
</svg>
