<svg width="146" height="43" viewBox="0 0 146 43" fill="none" xmlns="http://www.w3.org/2000/svg">
<path fill-rule="evenodd" clip-rule="evenodd" d="M0 6C0 2.68629 2.68629 0 6 0H140C143.314 0 146 2.68629 146 6V37C146 40.3137 143.314 43 140 43H6C2.68629 43 0 40.3137 0 37L0 6Z" fill="#0C6195"/>
<path d="M54.664 26H56.968L52.12 14.8H49.896L44.984 26H47.208L48.2 23.632H53.672L54.664 26ZM48.968 21.792L50.952 17.088L52.904 21.792H48.968ZM64.0189 14.128V18.848C63.3949 17.888 62.4029 17.36 61.0909 17.36C58.6909 17.36 57.0589 19.104 57.0589 21.696C57.0589 24.304 58.6909 26.096 61.1389 26.096C62.4189 26.096 63.4109 25.568 64.0189 24.624V26H66.0989V14.128H64.0189ZM61.5869 24.352C60.1469 24.352 59.1709 23.28 59.1549 21.744C59.1709 20.224 60.1629 19.136 61.5869 19.136C63.0269 19.136 64.0189 20.208 64.0189 21.744C64.0189 23.28 63.0269 24.352 61.5869 24.352ZM74.9408 14.128V18.848C74.3168 17.888 73.3248 17.36 72.0128 17.36C69.6128 17.36 67.9808 19.104 67.9808 21.696C67.9808 24.304 69.6128 26.096 72.0608 26.096C73.3408 26.096 74.3328 25.568 74.9408 24.624V26H77.0208V14.128H74.9408ZM72.5088 24.352C71.0688 24.352 70.0928 23.28 70.0768 21.744C70.0928 20.224 71.0848 19.136 72.5088 19.136C73.9488 19.136 74.9408 20.208 74.9408 21.744C74.9408 23.28 73.9488 24.352 72.5088 24.352ZM89.5395 14.8H84.5635V26H89.6835C92.2435 26 93.8275 24.832 93.8275 22.912C93.8275 21.424 92.9315 20.352 91.4435 20.08C92.6595 19.776 93.3955 18.832 93.3955 17.6C93.3955 15.872 91.9235 14.8 89.5395 14.8ZM89.4275 19.376H86.7075V16.656H89.4275C90.5315 16.64 91.2035 17.136 91.2035 17.984C91.2035 18.864 90.5315 19.376 89.4275 19.376ZM89.4275 24.144H86.7075V21.184H89.4275C90.7875 21.168 91.6035 21.728 91.6035 22.64C91.6035 23.6 90.7875 24.16 89.4275 24.144ZM95.9073 14.128V26H97.9873V14.128H95.9073ZM104.399 17.376C101.695 17.376 99.8714 19.12 99.8714 21.712C99.8714 24.32 101.695 26.08 104.399 26.08C107.071 26.08 108.895 24.32 108.895 21.712C108.895 19.12 107.071 17.376 104.399 17.376ZM104.399 19.152C105.807 19.152 106.799 20.208 106.799 21.744C106.799 23.28 105.807 24.336 104.399 24.336C102.959 24.336 101.967 23.28 101.967 21.744C101.967 20.208 102.959 19.152 104.399 19.152ZM116.59 20.144L117.854 18.944C117.086 17.952 115.838 17.376 114.27 17.376C111.694 17.376 109.918 19.136 109.918 21.744C109.918 24.32 111.678 26.08 114.238 26.08C115.918 26.08 117.198 25.44 117.95 24.352L116.654 23.28C116.142 23.952 115.342 24.288 114.35 24.288C112.974 24.288 112.014 23.264 112.014 21.728C112.014 20.224 112.974 19.2 114.35 19.2C115.294 19.2 116.046 19.552 116.59 20.144ZM125.526 26H128.006L124.646 20.752L127.814 17.456H125.414L121.894 21.008V14.128H119.814V26H121.894V23.632L123.206 22.256L125.526 26Z" fill="white"/>
<path d="M31.3333 19.3333H24.6667V12.6667C24.6667 12.2246 24.4911 11.8007 24.1785 11.4882C23.8659 11.1756 23.442 11 23 11C22.558 11 22.134 11.1756 21.8215 11.4882C21.5089 11.8007 21.3333 12.2246 21.3333 12.6667V19.3333H14.6667C14.2246 19.3333 13.8007 19.5089 13.4882 19.8215C13.1756 20.134 13 20.558 13 21C13 21.442 13.1756 21.8659 13.4882 22.1785C13.8007 22.4911 14.2246 22.6667 14.6667 22.6667H21.3333V29.3333C21.3333 29.7754 21.5089 30.1993 21.8215 30.5118C22.134 30.8244 22.558 31 23 31C23.442 31 23.8659 30.8244 24.1785 30.5118C24.4911 30.1993 24.6667 29.7754 24.6667 29.3333V22.6667H31.3333C31.7754 22.6667 32.1993 22.4911 32.5118 22.1785C32.8244 21.8659 33 21.442 33 21C33 20.558 32.8244 20.134 32.5118 19.8215C32.1993 19.5089 31.7754 19.3333 31.3333 19.3333Z" fill="#B6D0DF"/>
</svg>
