<svg width="29" height="50" viewBox="0 0 29 50" fill="none" xmlns="http://www.w3.org/2000/svg">
<path d="M0.204 39.2V49H7.554V47.362H2.08V44.898H6.84V43.26H2.08V40.838H7.386V39.2H0.204ZM14.7939 38.612V42.742C14.2479 41.902 13.3799 41.44 12.2319 41.44C10.1319 41.44 8.70386 42.966 8.70386 45.234C8.70386 47.516 10.1319 49.084 12.2739 49.084C13.3939 49.084 14.2619 48.622 14.7939 47.796V49H16.6139V38.612H14.7939ZM12.6659 47.558C11.4059 47.558 10.5519 46.62 10.5379 45.276C10.5519 43.946 11.4199 42.994 12.6659 42.994C13.9259 42.994 14.7939 43.932 14.7939 45.276C14.7939 46.62 13.9259 47.558 12.6659 47.558ZM19.8565 38.36C19.2825 38.36 18.8765 38.78 18.8765 39.368C18.8765 39.956 19.2825 40.376 19.8565 40.376C20.4305 40.376 20.8365 39.956 20.8365 39.368C20.8365 38.78 20.4305 38.36 19.8565 38.36ZM18.9465 41.51V49H20.7665V41.51H18.9465ZM26.9827 47.166C26.5767 47.362 26.2267 47.474 25.9187 47.474C25.4287 47.474 25.1347 47.236 25.1347 46.522V43.148H27.2767V41.818H25.1347V39.76H23.3287V41.818H22.2647L22.2787 43.148H23.3287V46.844C23.3287 48.384 24.3087 49.084 25.5267 49.084C26.1847 49.084 26.8287 48.888 27.4027 48.538L26.9827 47.166Z" fill="white"/>
<path d="M24.4591 0.707811C24.0059 0.254756 23.3913 0.000244141 22.7505 0.000244141C22.1097 0.000244141 21.4951 0.254756 21.0419 0.707811L2.41667 19.3331L0 28.9997L9.66667 26.5831L28.2919 7.95781C28.745 7.50462 28.9995 6.89004 28.9995 6.24923C28.9995 5.60841 28.745 4.99384 28.2919 4.54064L24.4591 0.707811Z" fill="white"/>
</svg>
