<svg width="289" height="55" viewBox="0 0 289 55" fill="none" xmlns="http://www.w3.org/2000/svg">
<path d="M75.838 4.292L76.54 2.784C75.669 2.212 74.46 1.822 73.251 1.822C71.21 1.822 69.845 2.836 69.845 4.422C69.845 7.659 74.733 6.58 74.733 8.478C74.733 9.115 74.148 9.479 73.173 9.479C72.198 9.479 70.963 8.972 70.027 8.14L69.299 9.609C70.274 10.48 71.691 11.065 73.147 11.065C75.149 11.065 76.631 10.077 76.631 8.374C76.644 5.111 71.756 6.112 71.756 4.266C71.756 3.707 72.289 3.408 73.108 3.408C73.81 3.408 74.863 3.707 75.838 4.292ZM78.0671 1.9V3.447H80.9011V11H82.6561V3.447H85.4901V1.9H78.0671ZM87.5237 1.9V11H94.3487V9.479H89.2657V7.191H93.6857V5.67H89.2657V3.421H94.1927V1.9H87.5237ZM100.649 1.9H96.9184V11H98.6604V8.322H100.649C102.937 8.322 104.25 7.113 104.25 5.033C104.25 3.031 102.937 1.9 100.649 1.9ZM100.558 6.788H98.6604V3.421H100.558C101.858 3.421 102.599 3.967 102.599 5.085C102.599 6.229 101.858 6.788 100.558 6.788ZM111.409 1.887V3.421H113.307V11H115.062V1.887H111.409Z" fill="#94A3B6"/>
<path d="M79.332 29.4H71.968V49H74.208V42.784H79.332C84.176 42.784 86.976 40.292 86.976 35.98C86.976 31.808 84.176 29.4 79.332 29.4ZM79.248 40.712H74.208V31.472H79.248C82.776 31.472 84.82 33.04 84.82 36.036C84.82 39.116 82.776 40.712 79.248 40.712ZM91.4545 28.56C90.6425 28.56 90.0265 29.176 90.0265 30.044C90.0265 30.884 90.6425 31.528 91.4545 31.528C92.2665 31.528 92.8825 30.884 92.8825 30.044C92.8825 29.176 92.2665 28.56 91.4545 28.56ZM90.3905 34.272V49H92.5465V34.272H90.3905ZM108.159 37.884L109.363 36.372C108.019 35 106.059 34.188 103.679 34.188C99.4233 34.188 96.3713 37.268 96.3713 41.636C96.3713 46.032 99.3953 49.084 103.679 49.084C106.227 49.084 108.271 48.132 109.587 46.536L108.327 45.248C107.291 46.48 105.695 47.152 103.763 47.152C100.711 47.152 98.5273 44.912 98.5273 41.636C98.5273 38.388 100.711 36.148 103.763 36.148C105.555 36.148 107.039 36.792 108.159 37.884ZM124.023 49H126.627L120.523 39.956L126.039 34.272H123.463L115.875 41.916V28.224H113.691V49H115.875V44.744L118.983 41.524L124.023 49ZM149.28 49L149.252 39.256C149.224 36.12 147.208 34.188 143.568 34.188C141.048 34.188 139.452 34.916 137.548 36.176L138.472 37.716C140.012 36.624 141.524 36.008 143.148 36.008C145.752 36.008 147.096 37.324 147.096 39.48V40.404H142.252C138.78 40.432 136.736 42.056 136.736 44.632C136.736 47.152 138.696 49.084 141.748 49.084C144.1 49.084 145.976 48.3 147.152 46.704V49H149.28ZM142.168 47.264C140.096 47.264 138.78 46.172 138.78 44.548C138.78 42.896 140.068 42.14 142.532 42.14H147.124V43.932C146.564 46.032 144.66 47.264 142.168 47.264ZM160.199 29.4V31.472H166.583V49H168.823V31.472H175.235V29.4H160.199ZM181.91 34.188C177.626 34.216 174.602 37.24 174.602 41.636C174.602 46.032 177.598 49.084 181.938 49.084C184.402 49.084 186.474 48.188 187.874 46.648L186.67 45.388C185.522 46.592 183.926 47.264 182.106 47.264C179.222 47.264 177.122 45.36 176.758 42.448H188.798C189.022 37.464 186.67 34.188 181.91 34.188ZM176.758 40.712C177.066 37.856 179.082 36.008 181.91 36.008C184.794 36.008 186.698 37.856 186.838 40.712H176.758ZM211.447 34.188C208.619 34.216 206.547 35.448 205.623 38.024C205.007 35.588 203.103 34.188 200.331 34.188C197.671 34.216 195.683 35.308 194.703 37.604V34.272H192.547V49H194.703V41.748C194.703 38.556 196.523 36.344 199.547 36.26C202.123 36.26 203.635 37.828 203.635 40.488V49H205.847V41.748C205.847 38.556 207.611 36.344 210.663 36.26C213.211 36.26 214.751 37.828 214.751 40.488V49H216.935V39.928C216.935 36.344 214.891 34.188 211.447 34.188ZM229.785 34.188C227.209 34.188 225.193 35.392 224.101 37.436V34.272H221.917V54.432H224.101V45.836C225.193 47.88 227.209 49.084 229.841 49.084C234.013 49.084 236.869 46.032 236.869 41.664C236.869 37.268 233.957 34.188 229.785 34.188ZM229.393 47.152C226.285 47.152 224.101 44.856 224.101 41.608C224.101 38.388 226.285 36.064 229.393 36.064C232.473 36.064 234.657 38.416 234.657 41.608C234.657 44.828 232.473 47.152 229.393 47.152ZM240.839 28.224V49H243.023V28.224H240.839ZM259.776 49L259.748 39.256C259.72 36.12 257.704 34.188 254.064 34.188C251.544 34.188 249.948 34.916 248.044 36.176L248.968 37.716C250.508 36.624 252.02 36.008 253.644 36.008C256.248 36.008 257.592 37.324 257.592 39.48V40.404H252.748C249.276 40.432 247.232 42.056 247.232 44.632C247.232 47.152 249.192 49.084 252.244 49.084C254.596 49.084 256.472 48.3 257.648 46.704V49H259.776ZM252.664 47.264C250.592 47.264 249.276 46.172 249.276 44.548C249.276 42.896 250.564 42.14 253.028 42.14H257.62V43.932C257.06 46.032 255.156 47.264 252.664 47.264ZM271.652 46.312C270.84 46.788 270.056 47.04 269.3 47.068C268.04 47.068 267.34 46.34 267.34 44.548V36.428H272.016V34.72H267.34V30.856H265.184V34.72H263.056V36.428H265.184V44.912C265.184 47.824 266.78 49.112 268.936 49.084C270.112 49.084 271.232 48.692 272.268 47.992L271.652 46.312ZM281.168 34.188C276.884 34.216 273.86 37.24 273.86 41.636C273.86 46.032 276.856 49.084 281.196 49.084C283.66 49.084 285.732 48.188 287.132 46.648L285.928 45.388C284.78 46.592 283.184 47.264 281.364 47.264C278.48 47.264 276.38 45.36 276.016 42.448H288.056C288.28 37.464 285.928 34.188 281.168 34.188ZM276.016 40.712C276.324 37.856 278.34 36.008 281.168 36.008C284.052 36.008 285.956 37.856 286.096 40.712H276.016Z" fill="#333333"/>
<g opacity="0.4">
<path d="M3.0625 47.4688H45.9375" stroke="#94A3B6" stroke-width="2" stroke-miterlimit="10" stroke-linecap="round" stroke-linejoin="round"/>
<path d="M32.1562 1.53125L41.3438 10.7188L15.3125 36.75L3.0625 39.8125L6.125 27.5625L32.1562 1.53125Z" stroke="#94A3B6" stroke-width="2" stroke-miterlimit="10" stroke-linecap="round" stroke-linejoin="round"/>
</g>
</svg>
