<svg width="55" height="53" viewBox="0 0 55 53" fill="none" xmlns="http://www.w3.org/2000/svg">
<path d="M4.222 42.2H0.204V52H2.08V49.116H4.222C6.686 49.116 8.1 47.814 8.1 45.574C8.1 43.418 6.686 42.2 4.222 42.2ZM4.124 47.464H2.08V43.838H4.124C5.524 43.838 6.322 44.426 6.322 45.63C6.322 46.862 5.524 47.464 4.124 47.464ZM11.4013 45.952V44.51H9.58127V52H11.4013V48.388C11.4013 47.03 12.3673 46.106 13.9493 46.204V44.44C12.7873 44.454 11.9053 44.972 11.4013 45.952ZM18.3498 44.454C16.1098 44.454 14.5418 45.994 14.5418 48.276C14.5418 50.53 16.0678 52.07 18.3918 52.07C19.7078 52.07 20.7998 51.594 21.5418 50.782L20.5618 49.76C20.0298 50.306 19.3158 50.6 18.5458 50.6C17.4538 50.6 16.6418 49.956 16.4038 48.892H21.9338C22.1158 46.176 20.9818 44.454 18.3498 44.454ZM16.3618 47.674C16.5298 46.568 17.2858 45.868 18.3638 45.868C19.4978 45.868 20.2398 46.568 20.2818 47.674H16.3618ZM22.1051 44.524L24.9891 52H26.8651L29.7211 44.51H27.8871L25.9691 50.208L24.0091 44.51L22.1051 44.524ZM31.6827 41.36C31.1087 41.36 30.7027 41.78 30.7027 42.368C30.7027 42.956 31.1087 43.376 31.6827 43.376C32.2567 43.376 32.6627 42.956 32.6627 42.368C32.6627 41.78 32.2567 41.36 31.6827 41.36ZM30.7727 44.51V52H32.5927V44.51H30.7727ZM37.9689 44.454C35.7289 44.454 34.1609 45.994 34.1609 48.276C34.1609 50.53 35.6869 52.07 38.0109 52.07C39.3269 52.07 40.4189 51.594 41.1609 50.782L40.1809 49.76C39.6489 50.306 38.9349 50.6 38.1649 50.6C37.0729 50.6 36.2609 49.956 36.0229 48.892H41.5529C41.7349 46.176 40.6009 44.454 37.9689 44.454ZM35.9809 47.674C36.1489 46.568 36.9049 45.868 37.9829 45.868C39.1169 45.868 39.8589 46.568 39.9009 47.674H35.9809ZM41.7243 44.524L44.4683 52H46.3303L48.1083 46.722L49.9003 52H51.7623L54.4783 44.51H52.6443L50.8523 50.166L49.0463 44.51H47.2123L45.4343 50.166L43.6003 44.51L41.7243 44.524Z" fill="white"/>
<g clip-path="url(#clip0)">
<path d="M26.4999 2.91663C16.067 2.91663 9.58323 15.6537 9.30614 16.1962C9.10385 16.601 8.99854 17.0474 8.99854 17.5C8.99854 17.9525 9.10385 18.3989 9.30614 18.8037C9.58323 19.3462 16.067 32.0833 26.4999 32.0833C36.9328 32.0833 43.4166 19.3462 43.7082 18.8037C43.9105 18.3989 44.0158 17.9525 44.0158 17.5C44.0158 17.0474 43.9105 16.601 43.7082 16.1962C43.4166 15.6537 36.9328 2.91663 26.4999 2.91663ZM26.4999 26.25C21.5882 26.25 17.2511 20.7929 15.2649 17.5175C16.9274 14.805 21.2295 8.74996 26.4999 8.74996C31.4116 8.74996 35.7486 14.21 37.7349 17.4825C36.0724 20.195 31.7703 26.25 26.4999 26.25Z" fill="white"/>
<path d="M26.5 21.875C28.9162 21.875 30.875 19.9162 30.875 17.5C30.875 15.0838 28.9162 13.125 26.5 13.125C24.0838 13.125 22.125 15.0838 22.125 17.5C22.125 19.9162 24.0838 21.875 26.5 21.875Z" fill="white"/>
</g>
<defs>
<clipPath id="clip0">
<rect width="35" height="35" fill="white" transform="translate(9)"/>
</clipPath>
</defs>
</svg>
