<?xml version="1.0" encoding="utf-8"?>
<!-- Generator: Adobe Illustrator 22.1.0, SVG Export Plug-In . SVG Version: 6.00 Build 0)  -->
<svg version="1.1" id="version1_logo" xmlns="http://www.w3.org/2000/svg" xmlns:xlink="http://www.w3.org/1999/xlink" x="0px"
	 y="0px" viewBox="0 0 460 108.7" style="enable-background:new 0 0 460 108.7;" xml:space="preserve">
<style type="text/css">
	.st0{display:none;}
	.st1{display:inline;fill:#FFFFFF;}
	.st2{fill:#0A122A;}
	.st3{fill:#5FCEC6;}
	.st4{fill:#EE6352;}
</style>
<g id="background_1_" class="st0">
	<rect x="-267" y="-307" class="st1" width="1000" height="800"/>
</g>
<g id="reveo">
	<path class="st2" d="M75.5,18c-0.7,3.4-1.7,6.7-3.1,9.7c-1.7,3.7-5.7,5.4-9.7,5.4c-2.8-0.1-6.3-0.8-12.3,0.3
		c-3.3,0.6-6.3,3.1-6.9,8.4l-5.2,48.5c-0.3,4.9-3.5,8.5-8,8.8c-2.1,0.1-4.2,0.2-6.3,0.2c-2,0-4-0.1-6-0.2c-4.5-0.3-8.2-4.3-8.1-8.7
		l5.2-51.2C17.3,24,22.9,14.3,35.8,9.9C41.4,8,48.1,7.1,55.5,7.1c4.7,0,9,0.3,12.7,0.8C73.1,8.6,76.4,13.1,75.5,18z"/>
	<path class="st2" d="M251.8,19.1c-7.4,26.2-17.7,49.6-29.5,69.4c-5,8.6-12.1,11.9-20.3,11.9l0,0c-0.2,0-0.4,0-0.7,0
		c-8-0.1-15.1-3.5-19-11.5c-11.6-21.8-17-43.9-22.3-69.8c-1-5.1,2.6-10.1,7.8-10.6c3.4-0.4,7.1-0.6,10.6-0.6c1.1,0,2.4,0,3.6,0.1
		c3.9,0.1,7.1,3,7.8,6.9c4.1,23.6,8.7,45.2,12.4,55.8c0.3,1.3,1.8,1.3,2.3,0c5-11.7,13.4-32.4,19.1-55.8c0.9-3.9,4.4-6.8,8.4-6.9
		c1.4,0,2.7-0.1,4.1-0.1c3,0,6,0.2,8.8,0.5C250,8.9,253.3,14,251.8,19.1z"/>
	<path class="st2" d="M148.9,81.4c1.2,3.7-0.3,7.8-3.6,9.9c-8.3,5.3-20,9.4-33.9,9.4C85.2,100.7,69,87.7,69,61
		c0-32.4,21.3-55.4,50.5-55.4c23.4,0,36.5,11.5,36.5,28.1c0,21.9-20.1,29.6-39.4,29.6c-6.4,0-13-0.8-19.4-2.5c0,1.7,0.1,2.9,0.3,4.3
		c1.3,10.2,7.4,14.1,18.7,14.1c7.1,0,12.8-2.1,18.2-5.5c3.9-2.4,8.9-1.5,11.6,2.1C147.3,77.6,148.2,79.5,148.9,81.4z M99,44.4
		c6.2,1.5,11.7,1.9,15.8,2.1c8.9,0,13.9-4,13.9-10.7c0-5.1-4-9.2-11.1-9.2C107.8,26.5,101.8,33.5,99,44.4z"/>
	<path class="st2" d="M330.4,81.4c1.2,3.7-0.3,7.8-3.6,9.9c-8.3,5.3-20,9.4-33.9,9.4c-26.2,0-42.4-13-42.4-39.7
		c0-32.4,21.3-55.4,50.5-55.4c23.3,0,36.5,11.5,36.5,28.1c0,21.9-20.1,29.6-39.3,29.6c-6.4,0-13-0.8-19.4-2.5c0,1.7,0.1,2.9,0.3,4.3
		c1.3,10.2,7.4,14.1,18.7,14.1c7.1,0,12.8-2.1,18.2-5.5c3.9-2.4,8.9-1.5,11.6,2.1C328.9,77.6,329.8,79.5,330.4,81.4z M280.5,44.4
		c6.2,1.5,11.7,1.9,15.8,2.1c8.8,0,13.9-4,13.9-10.7c0-5.1-4-9.2-11.1-9.2C289.4,26.5,283.3,33.5,280.5,44.4z"/>
</g>
<g id="icon_1_">
	<path class="st3" d="M411.4,50.9c0.2,1.8-0.8,3.5-3.2,4.9l-21,12.1c-2.1,1.2-3.8,1.1-5.1,0.2c2.1,3.5,6.9,5.1,10.8,2.8l16.5-9.5
		C412.6,58.5,413.3,54.1,411.4,50.9z"/>
	<path class="st3" d="M367.2,15c7.9-5.5,17.7-8.5,28.8-8.5c11,0,20.7,2.8,28.5,8c-0.8-0.7-1.5-1.3-2.3-2c-8.3-5.9-18.4-9.4-29.4-9.4
		c-21.5,0-39.9,13.5-47.3,32.4C350,26.2,357.6,19.2,367.2,15z"/>
	<path class="st4" d="M437.7,77.3c-6.9,13.1-19.4,22.8-34.3,26c-3.8,0.6-7.6,1-11.5,1.1c-26.5-0.5-48-21.3-49.6-47.5
		c-0.1-1-0.1-2.1-0.1-3.1c0-6.4,1.2-12.6,3.4-18.3c4.5-9.3,12.1-16.4,21.7-20.6c-11.7,8.1-18.9,21.6-18.9,38.6
		c0,17.5,9.7,32.8,24.1,40.9c6.8,3.8,14.8,6,23.3,6C414.5,100.5,429.8,91.8,437.7,77.3z"/>
	<path class="st4" d="M413.8,58.9l-4.3,2.5c3.1-2.9,3.8-7.3,1.9-10.5c-0.6-1-1.5-1.9-2.6-2.6L387.6,36c-2.2-1.3-4.2-0.8-5.7,0.5
		c1.5-3.1,4.9-4.9,8.3-4.4c1,0.1,2,0.5,2.9,1l20.8,12C419.2,48.2,419.2,55.9,413.8,58.9z"/>
	<path class="st2" d="M426.1,15.7c-0.5-0.4-1.1-0.8-1.6-1.1c-7.8-5.2-17.5-8-28.5-8c-11.1,0-21,3-28.8,8.5
		c-11.7,8.1-18.9,21.6-18.9,38.6c0,17.5,9.7,32.8,24.1,40.9c6.8,3.8,14.8,6,23.3,6c18.8,0,34.1-8.7,42-23.2c2.1-4,3.7-8.4,4.7-12.9
		c0-0.2,0.1-0.4,0.1-0.6c0.1-0.3,0.1-0.7,0.2-1c0.4-2.2,0.6-4.4,0.7-6.7c0-0.8,0.1-1.7,0.1-2.5C443.4,38.4,436.7,24.9,426.1,15.7z
		 M413.8,58.9l-4.3,2.5L393,70.9c-4,2.3-8.7,0.7-10.8-2.8c-0.7-1.2-1.1-2.6-1.1-4.1V40c0-1.3,0.3-2.5,0.8-3.5
		c1.5-3.1,4.9-4.9,8.3-4.4c1,0.1,2,0.5,2.9,1l20.8,12C419.2,48.2,419.2,55.9,413.8,58.9z"/>
</g>
</svg>
