<svg width="41" height="40" viewBox="0 0 41 40" fill="none" xmlns="http://www.w3.org/2000/svg">
<circle opacity="0.2" cx="20.2676" cy="20" r="20" fill="white"/>
<path d="M20.2678 21.308C14.0552 21.308 10.6338 24.247 10.6338 29.5837C10.6338 30.0005 10.9716 30.3383 11.3884 30.3383H29.1472C29.564 30.3383 29.9018 30.0005 29.9018 29.5837C29.9018 24.2473 26.4804 21.308 20.2678 21.308ZM12.1705 28.8291C12.4673 24.8389 15.1877 22.8173 20.2678 22.8173C25.3479 22.8173 28.0684 24.8389 28.3654 28.8291H12.1705Z" fill="white" stroke="white"/>
<path d="M20.2679 8.66162C17.4141 8.66162 15.2622 10.8568 15.2622 13.7677C15.2622 16.7638 17.5077 19.2009 20.2679 19.2009C23.028 19.2009 25.2735 16.7638 25.2735 13.7679C25.2735 10.8568 23.1216 8.66162 20.2679 8.66162ZM20.2679 17.6919C18.3398 17.6919 16.7714 15.9316 16.7714 13.7679C16.7714 11.6836 18.2419 10.1709 20.2679 10.1709C22.2613 10.1709 23.7643 11.7171 23.7643 13.7679C23.7643 15.9316 22.1959 17.6919 20.2679 17.6919Z" fill="white" stroke="white"/>
</svg>
